<?xml version="1.0" encoding="utf-8"?>
<!-- Generator: Adobe Illustrator 27.4.1, SVG Export Plug-In . SVG Version: 6.00 Build 0)  -->
<svg version="1.1" id="Layer_1" xmlns="http://www.w3.org/2000/svg" xmlns:xlink="http://www.w3.org/1999/xlink" x="0px" y="0px"
	 viewBox="0 0 372.1 65.6" style="enable-background:new 0 0 372.1 65.6;" xml:space="preserve">
<style type="text/css">
	.st0{fill:#231F20;}
	.st1{fill:#FFCB04;}
	.st2{fill:#2E3191;}
	.st3{fill:#221F1F;}
	.st4{fill:#FFC114;}
</style>
<path d="M84.8,31.6h1.3l7.9,20.1h-1.3l-2.5-6.5h-9.6L78,51.8h-1.3L84.8,31.6z M89.8,44.2l-4.3-11.4h-0.1L81,44.2H89.8z"/>
<path d="M95.6,34.5v-2.9h1.1v2.9H95.6z M95.6,51.8V37.3h1.1v14.5H95.6z"/>
<path d="M101.1,40.5L101.1,40.5c0.2-0.5,0.5-0.9,0.8-1.3c0.4-0.4,0.8-0.8,1.3-1.1c0.5-0.3,1.1-0.5,1.7-0.7c0.6-0.2,1.3-0.2,1.9-0.2
	v1.1c-0.6-0.1-1.3,0-1.9,0.2c-0.8,0.2-1.5,0.7-2.1,1.2c-0.3,0.3-0.5,0.6-0.7,0.8c-0.2,0.3-0.4,0.6-0.5,0.9c-0.1,0.3-0.2,0.7-0.3,1.1
	c-0.1,0.5-0.1,0.9-0.1,1.4v7.9h-1.1V37.3h1.1V40.5z"/>
<path d="M109.2,40.6L109.2,40.6c0.2-0.4,0.4-0.8,0.7-1.2c0.3-0.4,0.6-0.9,1-1.2c0.5-0.4,1-0.7,1.6-0.9c0.7-0.3,1.4-0.4,2.1-0.4
	c1,0,2,0.2,2.9,0.6c0.8,0.4,1.5,1,2,1.7c0.5,0.7,1,1.5,1.2,2.4c0.3,0.9,0.4,1.9,0.4,2.9c0,1-0.1,2-0.4,3c-0.2,0.9-0.6,1.7-1.2,2.4
	c-0.5,0.7-1.2,1.2-2,1.6c-0.9,0.4-1.9,0.6-2.9,0.6c-1.1,0-2.2-0.3-3.2-0.8c-1-0.6-1.7-1.5-2.1-2.6h-0.1v8.2h-1V37.3h1L109.2,40.6z
	 M114.5,51.2c0.8,0,1.7-0.2,2.4-0.5c0.7-0.3,1.3-0.8,1.7-1.4c0.5-0.6,0.8-1.3,1-2.1c0.2-0.8,0.3-1.7,0.3-2.5c0-0.8-0.1-1.6-0.3-2.4
	c-0.2-0.8-0.5-1.5-1-2.1c-0.4-0.6-1-1.2-1.7-1.5c-1.6-0.8-3.4-0.8-4.9,0c-0.7,0.4-1.2,0.9-1.6,1.5c-0.4,0.6-0.8,1.4-0.9,2.1
	c-0.2,0.8-0.3,1.7-0.3,2.5c0,0.8,0.1,1.7,0.2,2.5c0.2,0.8,0.4,1.5,0.9,2.1c0.4,0.6,1,1.1,1.7,1.4C112.8,51,113.6,51.2,114.5,51.2z"
	/>
<path d="M122.9,44.5c0-1,0.1-2,0.4-2.9c0.3-0.9,0.7-1.7,1.3-2.4c0.6-0.7,1.3-1.3,2.1-1.7c1.8-0.8,3.9-0.8,5.7,0
	c0.8,0.4,1.5,0.9,2.1,1.7c0.6,0.7,1,1.5,1.3,2.4c0.6,1.9,0.6,3.9,0,5.8c-0.3,0.9-0.7,1.7-1.3,2.4c-0.6,0.7-1.3,1.2-2.1,1.6
	c-1.8,0.8-3.9,0.8-5.7,0c-0.8-0.4-1.5-0.9-2.1-1.6c-0.6-0.7-1-1.5-1.3-2.4C123,46.5,122.9,45.5,122.9,44.5z M123.9,44.5
	c0,0.8,0.1,1.7,0.4,2.5c0.2,0.8,0.6,1.5,1.1,2.1c0.5,0.6,1.1,1.1,1.7,1.5c2.2,1.2,5,0.5,6.5-1.5c0.5-0.6,0.8-1.4,1.1-2.1
	c0.5-1.6,0.5-3.4,0-5c-0.2-0.8-0.6-1.5-1.1-2.1c-0.5-0.6-1.1-1.1-1.7-1.5c-1.5-0.7-3.3-0.7-4.8,0c-0.7,0.4-1.3,0.9-1.7,1.5
	c-0.5,0.6-0.8,1.4-1.1,2.1C124.1,42.8,124,43.7,123.9,44.5L123.9,44.5z"/>
<path d="M139.7,40.5L139.7,40.5c0.2-0.5,0.5-0.9,0.8-1.3c0.4-0.4,0.8-0.8,1.3-1.1c0.5-0.3,1.1-0.5,1.7-0.7c0.6-0.2,1.3-0.2,1.9-0.2
	v1.1c-0.6-0.1-1.3,0-1.9,0.2c-0.8,0.2-1.5,0.7-2.1,1.2c-0.3,0.3-0.5,0.6-0.7,0.8c-0.2,0.3-0.4,0.6-0.5,0.9c-0.1,0.3-0.2,0.7-0.3,1.1
	c-0.1,0.5-0.1,0.9-0.1,1.4v7.9h-1.1V37.3h1.1L139.7,40.5z"/>
<path d="M152.5,38.2h-3.2v10.1c0,0.5,0.1,0.9,0.2,1.4c0.1,0.3,0.3,0.6,0.6,0.8c0.3,0.2,0.6,0.3,1,0.3c0.4,0,0.9,0,1.3,0v0.9
	c-0.5,0-1.1,0-1.6,0c-0.5,0-0.9-0.2-1.4-0.4c-0.4-0.3-0.7-0.6-0.9-1.1c-0.3-0.6-0.4-1.3-0.3-1.9V38.2h-2.7v-0.9h2.7v-4.5h1.1v4.5
	h3.2L152.5,38.2z"/>
<path class="st0" d="M155.1,31.6h3.5v17.1h10.2v3h-13.7V31.6z"/>
<path class="st0" d="M170.9,31.6h3.2v3h-3.2V31.6z M170.9,37.2h3.2v14.5h-3.2V37.2z"/>
<path class="st0" d="M191,51c0.1,1.8-0.5,3.6-1.8,4.9c-1.5,1.2-3.4,1.7-5.3,1.6c-0.7,0-1.5-0.1-2.2-0.2c-0.7-0.1-1.4-0.4-2-0.8
	c-0.6-0.4-1.1-0.8-1.5-1.4c-0.4-0.6-0.7-1.4-0.7-2.1h3.2c0.1,0.4,0.2,0.8,0.5,1.1c0.2,0.3,0.5,0.5,0.8,0.7c0.3,0.2,0.7,0.3,1,0.3
	c0.4,0,0.8,0.1,1.2,0.1c1,0.1,2.1-0.3,2.8-1c0.6-0.8,1-1.8,0.9-2.8v-2.2h-0.1c-0.4,0.8-1.1,1.4-1.9,1.9c-0.8,0.4-1.6,0.7-2.5,0.7
	c-1,0-2.1-0.2-3-0.6c-0.8-0.4-1.5-1-2-1.7c-0.5-0.7-0.9-1.6-1.2-2.4c-0.3-1-0.4-2-0.4-3c0-0.9,0.1-1.9,0.4-2.8
	c0.3-0.9,0.7-1.6,1.3-2.3c1.2-1.4,3-2.2,4.8-2.2c0.9,0,1.7,0.2,2.5,0.6c0.8,0.4,1.4,1,1.8,1.8h0.1v-2h3.2V51z M183.9,49.2
	c1.2,0,2.3-0.6,3-1.6c0.3-0.5,0.5-1.1,0.7-1.6c0.1-0.6,0.2-1.2,0.2-1.8c0-0.6-0.1-1.2-0.2-1.8c-0.1-0.6-0.4-1.1-0.7-1.5
	c-0.3-0.4-0.7-0.8-1.2-1.1c-0.6-0.3-1.2-0.4-1.8-0.4c-0.6,0-1.3,0.1-1.8,0.5c-0.5,0.3-0.8,0.7-1.1,1.2c-0.3,0.5-0.5,1.1-0.6,1.6
	c-0.1,0.6-0.2,1.2-0.2,1.8c0,0.6,0.1,1.2,0.2,1.8c0.1,0.5,0.4,1,0.7,1.5c0.3,0.4,0.7,0.8,1.2,1.1C182.7,49.1,183.3,49.2,183.9,49.2
	L183.9,49.2z"/>
<path class="st0" d="M194.3,31.6h3.2v7.5h0.1c0.4-0.7,1-1.3,1.8-1.7c0.8-0.4,1.7-0.7,2.6-0.7c1.4-0.1,2.7,0.3,3.8,1.2
	c1,1,1.5,2.3,1.4,3.7v10h-3.2v-9.1c0-0.9-0.2-1.8-0.7-2.5c-0.6-0.6-1.3-0.8-2.1-0.8c-0.5,0-1,0.1-1.5,0.3c-0.4,0.2-0.8,0.5-1.1,0.8
	c-0.3,0.4-0.5,0.8-0.7,1.2c-0.2,0.5-0.3,1-0.2,1.5v8.6h-3.2L194.3,31.6z"/>
<path class="st0" d="M209,37.2h2.4v-4.4h3.2v4.4h2.9v2.4h-2.9v7.8c0,0.3,0,0.6,0,0.9c0,0.2,0.1,0.4,0.2,0.6c0.1,0.2,0.3,0.3,0.5,0.4
	c0.3,0.1,0.6,0.1,0.8,0.1h0.7c0.2,0,0.5,0,0.7-0.1v2.5l-1,0.1c-0.3,0-0.7,0-1,0c-0.7,0-1.3-0.1-2-0.2c-0.5-0.1-0.9-0.4-1.2-0.7
	c-0.3-0.3-0.5-0.7-0.6-1.2c-0.1-0.5-0.2-1.1-0.2-1.6v-8.6H209V37.2z"/>
<path class="st0" d="M219.9,31.6h3.2v3h-3.2V31.6z M219.9,37.2h3.2v14.5h-3.2V37.2z"/>
<path class="st0" d="M226.6,37.2h3v2.1h0.1c0.5-0.8,1.1-1.4,1.9-1.9c0.8-0.5,1.7-0.7,2.6-0.7c1.4-0.1,2.7,0.4,3.8,1.2
	c1,1,1.5,2.3,1.4,3.7v10h-3.2v-9.1c0-0.9-0.2-1.8-0.7-2.5c-0.6-0.6-1.3-0.8-2.1-0.8c-0.5,0-1,0.1-1.5,0.3c-0.4,0.2-0.8,0.5-1.1,0.8
	c-0.3,0.4-0.5,0.8-0.7,1.2c-0.2,0.5-0.3,1-0.2,1.5v8.6h-3.2V37.2z"/>
<path class="st0" d="M256.2,51c0.1,1.8-0.5,3.6-1.9,4.9c-1.5,1.2-3.4,1.7-5.3,1.6c-0.7,0-1.5-0.1-2.2-0.2c-0.7-0.1-1.4-0.4-2-0.8
	c-0.6-0.4-1.1-0.8-1.5-1.4c-0.4-0.6-0.7-1.4-0.7-2.1h3.2c0.1,0.4,0.2,0.8,0.5,1.1c0.2,0.3,0.5,0.5,0.8,0.7c0.3,0.2,0.7,0.3,1,0.3
	c0.4,0,0.8,0.1,1.2,0.1c1,0.1,2.1-0.3,2.9-1c0.6-0.8,1-1.8,0.9-2.8v-2.2h0c-0.4,0.8-1.1,1.4-1.8,1.9c-0.8,0.4-1.6,0.7-2.5,0.7
	c-1,0-2.1-0.2-3-0.6c-0.8-0.4-1.5-1-2-1.7c-0.5-0.7-0.9-1.6-1.2-2.4c-0.2-1-0.4-2-0.4-3c0-0.9,0.1-1.9,0.5-2.8
	c0.3-0.8,0.7-1.6,1.2-2.3c0.6-0.7,1.3-1.2,2.1-1.6c0.9-0.4,1.8-0.6,2.8-0.6c0.9,0,1.8,0.2,2.5,0.6c0.8,0.4,1.4,1,1.8,1.8l0,0v-2h3.2
	L256.2,51z M249.1,49.2c0.6,0,1.3-0.1,1.8-0.4c0.5-0.3,0.9-0.7,1.2-1.2c0.3-0.5,0.6-1.1,0.7-1.6c0.1-0.6,0.2-1.2,0.2-1.8
	c0-0.6-0.1-1.2-0.2-1.8c-0.1-0.6-0.4-1.1-0.7-1.5c-0.3-0.5-0.7-0.8-1.2-1.1c-0.6-0.3-1.2-0.4-1.8-0.4c-0.6,0-1.3,0.1-1.8,0.5
	c-0.5,0.3-0.9,0.7-1.2,1.2c-0.3,0.5-0.5,1.1-0.6,1.6c-0.1,0.6-0.2,1.2-0.2,1.8c0,0.6,0.1,1.2,0.2,1.8c0.1,0.6,0.4,1.1,0.7,1.5
	c0.3,0.4,0.7,0.8,1.2,1.1C247.9,49.1,248.5,49.2,249.1,49.2L249.1,49.2z"/>
<path d="M258.8,41.7c0-1.4,0.2-2.8,0.6-4.1c0.4-1.2,1-2.4,1.9-3.3c0.8-1,1.8-1.7,3-2.2c1.3-0.6,2.6-0.8,4-0.8c1,0,2.1,0.1,3.1,0.5
	c0.8,0.3,1.5,0.7,2.2,1.2c0.6,0.4,1,0.9,1.5,1.5c0.3,0.5,0.6,1,0.9,1.5c0.2,0.4,0.3,0.8,0.4,1.2c0.1,0.3,0.1,0.5,0.1,0.6h-1.2
	c-0.1-0.8-0.4-1.6-0.8-2.3c-0.4-0.7-0.9-1.2-1.5-1.7c-0.6-0.5-1.3-0.8-2.1-1.1c-0.8-0.3-1.6-0.4-2.4-0.4c-1.2,0-2.4,0.2-3.5,0.8
	c-1,0.5-1.9,1.2-2.6,2c-0.7,0.9-1.3,1.9-1.6,3c-0.7,2.4-0.7,4.9,0,7.3c0.3,1.1,0.9,2.1,1.6,3c0.7,0.8,1.6,1.5,2.6,2
	c1.1,0.5,2.3,0.8,3.5,0.8c0.9,0,1.9-0.2,2.8-0.6c0.8-0.4,1.6-0.9,2.3-1.5c0.6-0.7,1.2-1.5,1.5-2.3c0.4-0.9,0.6-1.8,0.7-2.7h1.2
	c-0.1,1.2-0.4,2.3-0.9,3.3c-0.5,1-1.1,1.9-1.8,2.6c-1.5,1.5-3.6,2.4-5.7,2.3c-1.4,0-2.7-0.3-4-0.8c-1.1-0.5-2.2-1.3-3-2.2
	c-0.8-1-1.5-2.1-1.9-3.3C259,44.5,258.8,43.1,258.8,41.7z"/>
<path d="M278.5,44.5c0-1,0.1-2,0.4-2.9c0.3-0.9,0.7-1.7,1.3-2.4c0.6-0.7,1.3-1.3,2.1-1.7c1.8-0.8,3.9-0.8,5.7,0
	c0.8,0.4,1.5,0.9,2.1,1.7c0.6,0.7,1,1.5,1.3,2.4c0.6,1.9,0.6,3.9,0,5.8c-0.3,0.9-0.7,1.7-1.3,2.4c-0.6,0.7-1.3,1.2-2.1,1.6
	c-1.8,0.8-3.9,0.8-5.7,0c-0.8-0.4-1.5-0.9-2.1-1.6c-0.6-0.7-1-1.5-1.3-2.4C278.6,46.5,278.5,45.5,278.5,44.5z M279.5,44.5
	c0,0.8,0.1,1.7,0.4,2.5c0.2,0.8,0.6,1.5,1.1,2.1c0.5,0.6,1.1,1.1,1.8,1.5c1.5,0.7,3.3,0.7,4.8,0c0.7-0.4,1.3-0.9,1.8-1.5
	c0.5-0.6,0.8-1.4,1.1-2.1c0.5-1.6,0.5-3.4,0-5c-0.2-0.8-0.6-1.5-1.1-2.1c-0.5-0.6-1.1-1.1-1.8-1.5c-1.5-0.7-3.3-0.7-4.8,0
	c-0.7,0.4-1.3,0.9-1.7,1.5c-0.5,0.6-0.8,1.3-1.1,2.1C279.7,42.8,279.5,43.7,279.5,44.5z"/>
<path d="M294.3,37.3h1.1v3h0.1c0.1-0.5,0.3-0.9,0.6-1.3c0.3-0.4,0.6-0.8,1-1.1c0.4-0.3,0.9-0.5,1.4-0.7c0.5-0.2,1-0.3,1.6-0.3
	c0.6,0,1.2,0.1,1.8,0.3c0.5,0.2,0.9,0.4,1.3,0.7c0.3,0.3,0.6,0.6,0.8,1c0.2,0.3,0.3,0.7,0.4,1.1h0.1c0.4-0.9,1-1.7,1.7-2.3
	c0.8-0.6,1.8-0.8,2.9-0.8c0.6,0,1.2,0.1,1.8,0.3c0.5,0.2,1,0.5,1.4,0.9c0.4,0.4,0.7,1,0.9,1.5c0.2,0.7,0.4,1.5,0.3,2.2v9.9h-1.1v-10
	c0-0.7-0.1-1.5-0.4-2.2c-0.2-0.5-0.6-0.9-1-1.2c-0.3-0.3-0.7-0.4-1.2-0.5c-0.3-0.1-0.6-0.1-0.9-0.1c-0.6,0-1.2,0.1-1.8,0.3
	c-0.5,0.2-1,0.6-1.4,1c-0.4,0.5-0.8,1.1-1,1.7c-0.2,0.7-0.3,1.5-0.3,2.3v8.6h-1.1v-9.9c0-0.7-0.1-1.5-0.4-2.2
	c-0.2-0.5-0.6-0.9-1-1.2c-0.3-0.2-0.7-0.4-1.1-0.5c-0.3-0.1-0.6-0.1-0.9-0.1c-0.5,0-1.1,0.1-1.6,0.3c-0.6,0.2-1.1,0.6-1.5,1
	c-0.5,0.5-0.9,1-1.1,1.7c-0.3,0.8-0.4,1.6-0.4,2.4v8.6h-1.1L294.3,37.3z"/>
<path d="M318,40.6L318,40.6c0.2-0.4,0.4-0.8,0.6-1.2c0.3-0.5,0.6-0.9,1-1.2c0.5-0.4,1-0.7,1.6-0.9c0.7-0.3,1.4-0.4,2.1-0.4
	c1,0,2,0.2,2.9,0.6c0.8,0.4,1.5,1,2,1.7c0.5,0.7,1,1.5,1.2,2.4c0.3,0.9,0.4,1.9,0.4,2.9c0,1-0.1,2-0.4,3c-0.2,0.9-0.6,1.7-1.2,2.4
	c-0.5,0.7-1.2,1.2-2,1.6c-0.9,0.4-1.9,0.6-2.9,0.6c-1.1,0-2.2-0.3-3.2-0.8c-1-0.6-1.7-1.5-2.1-2.5l0,0v8.2h-1V37.3h1V40.6z
	 M323.3,51.2c0.8,0,1.7-0.2,2.4-0.5c0.7-0.3,1.2-0.8,1.7-1.4c0.5-0.6,0.8-1.3,1-2.1c0.2-0.8,0.3-1.7,0.3-2.5c0-0.8-0.1-1.6-0.3-2.4
	c-0.2-0.8-0.5-1.5-1-2.1c-0.4-0.6-1-1.2-1.7-1.5c-1.6-0.8-3.4-0.8-5,0c-0.7,0.4-1.2,0.9-1.6,1.5c-0.4,0.6-0.8,1.4-0.9,2.1
	c-0.2,0.8-0.3,1.7-0.3,2.5c0,0.8,0.1,1.7,0.2,2.5c0.2,0.8,0.4,1.5,0.9,2.1c0.4,0.6,1,1.1,1.6,1.5C321.5,51,322.4,51.2,323.3,51.2
	L323.3,51.2z"/>
<path d="M342,48.9L342,48.9c-0.2,0.4-0.5,0.9-0.8,1.2c-0.3,0.4-0.7,0.7-1.2,1c-0.5,0.3-1,0.6-1.6,0.7c-0.6,0.2-1.3,0.3-1.9,0.2
	c-1.3,0.1-2.5-0.3-3.6-1c-0.9-0.7-1.4-1.9-1.3-3.1c0-0.7,0.1-1.4,0.5-2.1c0.3-0.5,0.8-1,1.3-1.3c0.5-0.3,1.1-0.5,1.7-0.7
	c0.6-0.1,1.2-0.2,1.8-0.3l1.7-0.1c0.6,0,1.2-0.1,1.8-0.3c0.4-0.1,0.7-0.3,1-0.5c0.2-0.2,0.4-0.5,0.4-0.8c0.1-0.4,0.1-0.8,0.1-1.3
	c0-0.4-0.1-0.8-0.2-1.1c-0.2-0.4-0.4-0.7-0.7-0.9c-0.4-0.3-0.8-0.5-1.2-0.6c-0.6-0.2-1.2-0.2-1.9-0.2c-1.1,0-2.2,0.3-3.1,1
	c-0.8,0.7-1.3,1.8-1.3,2.9h-1.1c0-1.4,0.5-2.7,1.6-3.6c1.1-0.9,2.6-1.3,4-1.2c1.3-0.1,2.7,0.2,3.8,1c0.8,0.7,1.2,1.7,1.2,2.7V49
	c0,0.2,0,0.4,0,0.6c0,0.2,0,0.4,0.1,0.6c0.1,0.2,0.1,0.3,0.3,0.4c0.2,0.1,0.4,0.2,0.6,0.2c0.3,0,0.5,0,0.8-0.1v0.9
	c-0.3,0.1-0.6,0.1-0.9,0.1c-0.3,0-0.7,0-1-0.2c-0.2-0.1-0.4-0.2-0.6-0.5c-0.1-0.2-0.2-0.4-0.3-0.7c-0.1-0.3-0.1-0.6-0.1-0.8
	L342,48.9z M342,43.5c-0.3,0.4-0.7,0.6-1.2,0.7c-0.6,0.1-1.2,0.2-1.8,0.2l-1.8,0.2c-0.5,0.1-1,0.1-1.6,0.2c-0.5,0.1-1,0.3-1.4,0.5
	c-0.4,0.2-0.8,0.6-1,1c-0.3,0.5-0.4,1.1-0.4,1.7c-0.1,0.9,0.3,1.8,1,2.4c0.8,0.6,1.8,0.8,2.8,0.8c1,0.1,2-0.2,2.9-0.7
	c0.6-0.4,1.2-0.9,1.6-1.5c0.3-0.5,0.6-1.1,0.7-1.7c0.1-0.4,0.1-0.7,0.2-1.1L342,43.5z"/>
<path d="M346.4,37.3h1.1v3.1h0.1c0.2-0.5,0.4-1,0.8-1.5c0.7-0.9,1.6-1.5,2.7-1.8c0.5-0.2,1.1-0.2,1.7-0.2c0.7,0,1.5,0.1,2.1,0.3
	c0.5,0.2,1,0.5,1.5,0.8c0.4,0.3,0.7,0.7,0.9,1.1c0.2,0.4,0.4,0.8,0.5,1.3c0.1,0.4,0.1,0.8,0.2,1.2c0,0.4,0,0.8,0,1.1v9h-1.1v-9.2
	c0-0.3,0-0.8-0.1-1.3c-0.1-0.5-0.2-1.1-0.5-1.6c-0.3-0.5-0.7-1-1.2-1.3c-0.7-0.4-1.5-0.6-2.3-0.5c-0.8,0-1.5,0.1-2.2,0.5
	c-0.6,0.3-1.2,0.7-1.6,1.3c-0.5,0.6-0.8,1.2-1,1.9c-0.2,0.8-0.4,1.6-0.4,2.4v7.8h-1.1L346.4,37.3z"/>
<path d="M359.3,37.3h1.3l5.4,13.2l5-13.2h1.2l-6.2,16c-0.3,0.7-0.6,1.3-0.8,1.8c-0.2,0.4-0.5,0.8-0.9,1.2c-0.4,0.3-0.9,0.5-1.3,0.5
	c-0.7,0.1-1.3,0.1-2,0.1V56c0.6,0,1.2,0,1.8-0.2c0.5-0.1,0.9-0.4,1.2-0.8c0.3-0.3,0.5-0.7,0.6-1.1c0.2-0.5,0.5-1.3,0.8-2.3
	L359.3,37.3z"/>
<rect x="33.8" y="58.3" class="st1" width="6.3" height="0.1"/>
<g>
	<g>
		<path class="st2" d="M45.9,44.2V25.9c0-12.2-17.9-12.2-17.9,0v18.3H45.9z"/>
		<path class="st3" d="M8.6,36.7c0,3.5,0.6,7,1.9,10.3L32.3,8.2C18.5,10.6,8.5,22.7,8.6,36.7"/>
		<path class="st3" d="M65.3,36.7c0.1-14-9.9-26.1-23.7-28.5L63.4,47C64.6,43.7,65.3,40.2,65.3,36.7"/>
		<path class="st3" d="M41.5,8.2L37,0l-4.6,8.2C35.4,7.7,38.5,7.7,41.5,8.2"/>
		<path class="st3" d="M73.9,65.6L63.4,47c-5.3,14.6-21.4,22.2-36,16.9c-7.9-2.8-14.1-9-16.9-16.9L0,65.6H73.9z"/>
	</g>
</g>
<rect x="33.8" y="58.3" class="st4" width="6.3" height="0.1"/>
<polygon class="st4" points="45.9,44 45.9,44.2 28,44.2 28,44 25.8,44 25.8,47.3 29.5,47.3 29.5,51.3 31.5,51.3 31.5,58.5 
	33.8,58.5 33.8,65.6 40.1,65.6 40.1,58.5 42.4,58.5 42.4,51.3 44.4,51.3 44.4,47.3 48.1,47.3 48.1,44 "/>
</svg>
