<?xml version="1.0" encoding="utf-8"?>
<!-- Generator: Adobe Illustrator 22.1.0, SVG Export Plug-In . SVG Version: 6.00 Build 0)  -->
<svg version="1.1" id="Layer_1" xmlns="http://www.w3.org/2000/svg" xmlns:xlink="http://www.w3.org/1999/xlink" x="0px" y="0px"
	 viewBox="0 0 121 55" style="enable-background:new 0 0 121 55;" xml:space="preserve">
<style type="text/css">
	.st0{clip-path:url(#SVGID_2_);fill:#515E66;}
	.st1{clip-path:url(#SVGID_2_);fill:#EB8020;}
	.st2{fill:#FFFFFF;}
	.st3{clip-path:url(#SVGID_4_);fill:#FFFFFF;}
	.st4{fill:#515E66;}
	.st5{clip-path:url(#SVGID_6_);fill:#515E66;}
	.st6{clip-path:url(#SVGID_8_);fill:#515E66;}
	.st7{clip-path:url(#SVGID_10_);fill:#515E66;}
	.st8{clip-path:url(#SVGID_12_);fill:#515E66;}
</style>
<g>
	<defs>
		<rect id="SVGID_1_" x="0.5" y="0.6" width="120" height="53.8"/>
	</defs>
	<clipPath id="SVGID_2_">
		<use xlink:href="#SVGID_1_"  style="overflow:visible;"/>
	</clipPath>
	<path class="st0" d="M27.3,7.7H8.8v10h17c1.3,0,2.2,0.3,2.8,0.8c0.6,0.6,0.9,1.3,0.9,2.2c0,0.9-0.3,1.7-0.9,2.3
		c-0.6,0.6-1.5,0.9-2.8,0.9h-17v11.5h31.2l-0.1,6.5H5.6c-1.8,0-3.1-0.4-3.9-1.2c-0.8-0.8-1.2-2.1-1.2-3.8V6.4c0-1.2,0.2-2.1,0.5-2.9
		C1.4,2.7,2,2.2,2.7,1.8c0.7-0.3,1.7-0.5,2.9-0.5h21.7c1.3,0,2.3,0.3,2.9,0.9c0.6,0.6,1,1.3,1,2.3c0,1-0.3,1.7-1,2.3
		C29.6,7.4,28.6,7.7,27.3,7.7"/>
	<path class="st0" d="M96.3,23.9h10.6l-5.3-16.4L96.3,23.9z M111.7,37.3l-1.9-5.1H93.3l-3.7,9.5h-8.4c0,0,2.5-6,2.9-7L94.4,8.3
		c0.3-0.8,0.7-1.7,1.1-2.7c0.4-1.1,0.9-1.9,1.3-2.6c0.5-0.7,1.1-1.3,1.9-1.7c0.8-0.4,1.7-0.6,2.8-0.6c1.1,0,2.1,0.2,2.9,0.6
		c0.8,0.4,1.4,1,1.9,1.7c0.5,0.7,0.9,1.4,1.2,2.2c0.3,0.8,0.7,1.8,1.2,3.1l10.6,26.2c0.8,2,1.2,3.4,1.2,4.3c0,0.9-0.4,1.8-1.2,2.6
		c-0.8,0.8-1.7,1.2-2.8,1.2c-0.6,0-1.2-0.1-1.7-0.3c-0.5-0.2-0.8-0.5-1.2-0.9c-0.3-0.4-0.7-1-1-1.8C112.3,38.6,112,37.9,111.7,37.3"
		/>
	<path class="st0" d="M69.9,7.7h-30v10h17c1.3,0,2.2,0.3,2.8,0.8c0.6,0.6,0.9,1.3,0.9,2.2c0,0.9-0.3,1.7-0.9,2.3
		c-0.6,0.6-1.5,0.9-2.8,0.9h-17L40,41.9l-8.4-0.1c0,0,0.1-3.2,0.1-5V6.4c0-1.2,0.2-2.1,0.5-2.9c0.3-0.7,0.9-1.3,1.6-1.6
		c0.7-0.3,1.7-0.5,2.9-0.5h33.2V7.7z"/>
	<path class="st0" d="M88.4,35.6H69.9v-34l-8.3-0.1c0,0,0.1,3.2,0.1,5v30.5c0,1.2,0.2,2.1,0.5,2.9c0.3,0.7,0.9,1.3,1.6,1.6
		c0.7,0.3,1.7,0.5,2.9,0.5l22.9,0l2.2-6.3C91.8,35.6,89.7,35.6,88.4,35.6"/>
	<path class="st1" d="M38.6,47.3c-0.8-0.8-1.9-1.1-3.5-1.1H9.4c0,0,0,0,0,0H5.1c-1.6,0-2.7,0.4-3.5,1.1c-0.8,0.8-1.1,1.8-1.1,3
		c0,1.2,0.4,2.2,1.1,3c0.8,0.8,1.9,1.1,3.5,1.1h25.7h0h4.3c1.6,0,2.7-0.4,3.5-1.1c0.8-0.8,1.1-1.8,1.1-3
		C39.7,49,39.4,48.1,38.6,47.3"/>
</g>
<polygon class="st2" points="61,28 61,29.9 60,29.9 60,28 58.4,25.1 59.5,25.1 60.5,27.2 61.6,25.1 62.6,25.1 "/>
<g>
	<defs>
		<rect id="SVGID_3_" x="0.5" y="0.6" width="120" height="53.8"/>
	</defs>
	<clipPath id="SVGID_4_">
		<use xlink:href="#SVGID_3_"  style="overflow:visible;"/>
	</clipPath>
	<path class="st3" d="M22.7,50.3c0,0.6,0.2,1.7,1,1.7s1-1.1,1-1.7s-0.2-1.7-1-1.7S22.7,49.7,22.7,50.3 M25.6,50.3
		c0,1.2-0.6,2.5-2,2.5s-2-1.3-2-2.5s0.6-2.5,2-2.5S25.6,49.1,25.6,50.3"/>
	<path class="st3" d="M30.3,47.9v3.3c0,1-0.7,1.6-1.7,1.6c-1,0-1.7-0.6-1.7-1.6v-3.3h1v3c0,0.8,0.2,1.1,0.7,1.1
		c0.5,0,0.7-0.2,0.7-1.1v-3H30.3z"/>
	<path class="st3" d="M33,49.9c0.4,0,1.1,0,1.1-0.6c0-0.7-0.7-0.6-1.1-0.6h-0.4v1.2H33z M33.5,47.9c1.1,0,1.5,0.8,1.5,1.4
		c0,0.5-0.3,1-0.8,1.2l1,2.2h-1l-0.9-2h-0.7v2h-1v-4.8H33.5z"/>
</g>
<path class="st4" d="M60.5,25.9L60.5,25.9l-0.5,2h1L60.5,25.9z M62.5,29.9h-1l-0.3-1.2h-1.4l-0.3,1.2h-1l1.3-4.8h1.3L62.5,29.9z"/>
<g>
	<defs>
		<rect id="SVGID_5_" x="0.5" y="0.6" width="120" height="53.8"/>
	</defs>
	<clipPath id="SVGID_6_">
		<use xlink:href="#SVGID_5_"  style="overflow:visible;"/>
	</clipPath>
	<path class="st5" d="M48.3,51.1v-0.8H50v2.4h-0.7l-0.1-0.3c-0.3,0.3-0.7,0.4-1,0.4c-1.4,0-2-1.3-2-2.5c0-1.2,0.6-2.5,2-2.5
		c0.9,0,1.7,0.6,1.8,1.5l-0.9,0.1c-0.1-0.5-0.3-0.9-0.9-0.9c-0.8,0-1,1.1-1,1.7c0,0.6,0.2,1.7,1,1.7c0.7,0,0.9-0.4,0.8-1H48.3z"/>
</g>
<polygon class="st4" points="60,29.1 62,29.1 62,29.9 59,29.9 59,25.1 60,25.1 "/>
<g>
	<defs>
		<rect id="SVGID_7_" x="0.5" y="0.6" width="120" height="53.8"/>
	</defs>
	<clipPath id="SVGID_8_">
		<use xlink:href="#SVGID_7_"  style="overflow:visible;"/>
	</clipPath>
	<path class="st6" d="M59.3,50.1c0.5,0,1.3,0.1,1.3-0.7c0-0.8-0.8-0.7-1.3-0.7h-0.2v1.3H59.3z M60,47.9c1.1,0,1.6,0.8,1.6,1.5
		c0,0.7-0.4,1.5-1.8,1.5h-0.7v1.8h-1v-4.8H60z"/>
</g>
<path class="st4" d="M60.5,25.9L60.5,25.9l-0.5,2h1L60.5,25.9z M62.5,29.9h-1l-0.3-1.2h-1.4l-0.3,1.2h-1l1.3-4.8h1.3L62.5,29.9z"/>
<g>
	<defs>
		<rect id="SVGID_9_" x="0.5" y="0.6" width="120" height="53.8"/>
	</defs>
	<clipPath id="SVGID_10_">
		<use xlink:href="#SVGID_9_"  style="overflow:visible;"/>
	</clipPath>
	<path class="st7" d="M68.5,49.9c0.4,0,1.1,0,1.1-0.6c0-0.7-0.7-0.6-1.1-0.6h-0.4v1.2H68.5z M69,47.9c1.1,0,1.5,0.8,1.5,1.4
		c0,0.5-0.3,1-0.8,1.2l1,2.2h-1l-0.9-2h-0.7v2h-1v-4.8H69z"/>
</g>
<polygon class="st4" points="62.2,25.9 61,25.9 61,29.9 60,29.9 60,25.9 58.8,25.9 58.8,25.1 62.2,25.1 "/>
<polygon class="st4" points="60,25.1 61.4,28.3 61.5,28.3 61.5,25.1 62.4,25.1 62.4,29.9 61.4,29.9 59.6,26 59.5,26 59.5,29.9 
	58.6,29.9 58.6,25.1 "/>
<polygon class="st4" points="61.9,25.9 59.9,25.9 59.9,27.1 61.6,27.1 61.6,27.9 59.9,27.9 59.9,29.1 62.1,29.1 62.1,29.9 
	58.9,29.9 58.9,25.1 61.9,25.1 "/>
<g>
	<defs>
		<rect id="SVGID_11_" x="0.5" y="0.6" width="120" height="53.8"/>
	</defs>
	<clipPath id="SVGID_12_">
		<use xlink:href="#SVGID_11_"  style="overflow:visible;"/>
	</clipPath>
	<path class="st8" d="M87.2,49.9c0.4,0,1.1,0,1.1-0.6c0-0.7-0.7-0.6-1.1-0.6h-0.4v1.2H87.2z M87.7,47.9c1.1,0,1.5,0.8,1.5,1.4
		c0,0.5-0.3,1-0.8,1.2l1,2.2h-1l-0.9-2h-0.7v2h-1v-4.8H87.7z"/>
</g>
</svg>
