<svg id="H_P_Corporate_Logo_Image" data-name="H&amp;P Corporate Logo Image" xmlns="http://www.w3.org/2000/svg" viewBox="0 0 167.52 106.32"><defs><style>.cls-1{fill:#b90e0a;stroke:#fff;stroke-miterlimit:10;stroke-width:0.5px;}.cls-2{fill:#000;}.cls-3{fill:#fff;}</style></defs><path class="cls-1" d="M3.31,50.89l79-30.21,81.94,30.26L82.16,85.26Z"/><rect class="cls-2" x="3.31" y="1.34" width="160.9" height="0.46"/><rect class="cls-2" x="3.31" y="17.4" width="160.9" height="0.46"/><path class="cls-2" d="M54.28,15.2v-.15a3.1,3.1,0,0,0,1-.21,1.08,1.08,0,0,0,.51-.36.85.85,0,0,0,.06-.19q0-.13,0-.33l0-.38v-.39c0-.34,0-.69,0-1V9.69H49.78V13c0,.3,0,.59,0,.87a1.15,1.15,0,0,0,.14.59,1.29,1.29,0,0,0,.53.4,2.47,2.47,0,0,0,.66.17v.15H46.56v-.15a3.13,3.13,0,0,0,.74-.21,1.41,1.41,0,0,0,.54-.36.64.64,0,0,0,.1-.26,3.86,3.86,0,0,0,.07-.41c0-.16,0-.32,0-.5s0-.36,0-.52,0-.34,0-.59,0-.52,0-.81,0-.6,0-.91V6c0-.19,0-.36,0-.52A4.3,4.3,0,0,0,48,5.06a.7.7,0,0,0-.14-.3,1.21,1.21,0,0,0-.54-.38,3,3,0,0,0-.71-.16V4.06h4.61v.16l-.47.09a1.49,1.49,0,0,0-.45.19,1.22,1.22,0,0,0-.34.37,1.24,1.24,0,0,0-.15.58c0,.36,0,.75,0,1.17s0,.82,0,1.2V9.38h6.11V6.89c0-.27,0-.57,0-.91l0-.61a1.23,1.23,0,0,0-.15-.52,1.19,1.19,0,0,0-.64-.52,2.84,2.84,0,0,0-.71-.11V4.06H59v.16a2.74,2.74,0,0,0-.73.2,1.11,1.11,0,0,0-.52.48.87.87,0,0,0-.1.3c0,.13,0,.27,0,.43s0,.32,0,.49v5.06c0,.29,0,.59,0,.9s0,.65,0,1,0,.57,0,.83a1.17,1.17,0,0,0,.12.51,1,1,0,0,0,.54.44,3.34,3.34,0,0,0,.74.17v.15Z"/><path class="cls-2" d="M71.65,4.51a1.47,1.47,0,0,0-.52.66,1.64,1.64,0,0,0-.08.36c0,.17,0,.36-.07.57s0,.45,0,.69,0,.48,0,.72c0,.44,0,.94,0,1.49s0,1.16-.06,1.85c0,.2,0,.45,0,.75a4.85,4.85,0,0,1-.14,1,4.64,4.64,0,0,1-.4,1,3.11,3.11,0,0,1-.76.92,3.79,3.79,0,0,1-1.27.65,6.54,6.54,0,0,1-1.91.24,6.8,6.8,0,0,1-1.88-.23,3.91,3.91,0,0,1-1.26-.63,2.94,2.94,0,0,1-.76-.87,3.73,3.73,0,0,1-.4-.93,4,4,0,0,1-.16-.83c0-.25,0-.44,0-.57V10.17c0-.46,0-1,0-1.54V6c0-.19,0-.36,0-.52a4.3,4.3,0,0,0-.07-.43.7.7,0,0,0-.14-.3,1.18,1.18,0,0,0-.53-.38,3.16,3.16,0,0,0-.72-.16V4.06H65v.16l-.47.09a1.34,1.34,0,0,0-.44.19,1.13,1.13,0,0,0-.35.37,1.24,1.24,0,0,0-.15.58c0,.27,0,.51,0,.72s0,.4,0,.6V9.85c0,.24,0,.46,0,.69v.7a4.89,4.89,0,0,0,.25,1.49,3.48,3.48,0,0,0,.65,1.15,2.89,2.89,0,0,0,1,.73,3.54,3.54,0,0,0,1.38.25,4.59,4.59,0,0,0,1.49-.2,2.91,2.91,0,0,0,1-.56,2.71,2.71,0,0,0,.65-.82,4.16,4.16,0,0,0,.35-1,7.67,7.67,0,0,0,.16-1.07q0-.56,0-1.08V6.88c0-.22,0-.43,0-.62s0-.38,0-.55a1.29,1.29,0,0,0-.1-.41,1.49,1.49,0,0,0-.53-.71,2.58,2.58,0,0,0-1.12-.37V4.06h3.84v.16A2.22,2.22,0,0,0,71.65,4.51Z"/><path class="cls-2" d="M84.38,10.18a.78.78,0,0,0-.45.32,1.1,1.1,0,0,0-.12.52c0,.24,0,.48,0,.72V14a4.1,4.1,0,0,1-.53.31,11.26,11.26,0,0,1-1,.44,10.89,10.89,0,0,1-1.35.38,7.53,7.53,0,0,1-1.49.15,8.52,8.52,0,0,1-2.63-.38,5.23,5.23,0,0,1-2-1.11A4.83,4.83,0,0,1,73.57,12a6.41,6.41,0,0,1-.43-2.37,6.1,6.1,0,0,1,.08-.89,5.69,5.69,0,0,1,.27-1.06A6.1,6.1,0,0,1,74,6.54a5.61,5.61,0,0,1,.88-1.09,5.52,5.52,0,0,1,1.82-1.16,6.9,6.9,0,0,1,2.64-.45A7.38,7.38,0,0,1,81,4a7.18,7.18,0,0,1,1.19.35,5,5,0,0,1,.76.36,1.27,1.27,0,0,0,.29.16s.08-.06.17-.18.21-.28.34-.45h.14V7.62h-.19A5.31,5.31,0,0,0,83.2,6.3a4.94,4.94,0,0,0-.72-1,3.77,3.77,0,0,0-1.27-.85,4.61,4.61,0,0,0-1.74-.32,3.77,3.77,0,0,0-1.84.45,4.54,4.54,0,0,0-1.39,1.23,5.59,5.59,0,0,0-.88,1.76,6.93,6.93,0,0,0-.31,2.1,8,8,0,0,0,.29,2.2,5.08,5.08,0,0,0,.85,1.71,3.83,3.83,0,0,0,1.36,1.11,4.19,4.19,0,0,0,1.85.39,3.72,3.72,0,0,0,1.38-.25,2.07,2.07,0,0,0,1-.83,1.71,1.71,0,0,0,.19-.71,9,9,0,0,0,.06-1,9.55,9.55,0,0,0-.05-1,1.2,1.2,0,0,0-.32-.71,1.82,1.82,0,0,0-1.25-.48V9.89H85v.16A2.85,2.85,0,0,0,84.38,10.18Z"/><path class="cls-2" d="M93.88,15.2v-.15a3.1,3.1,0,0,0,1-.21,1.08,1.08,0,0,0,.51-.36.85.85,0,0,0,.06-.19q0-.13,0-.33l0-.38v-.39c0-.34,0-.69,0-1V9.69H89.38V13c0,.3,0,.59,0,.87a1.15,1.15,0,0,0,.14.59,1.29,1.29,0,0,0,.53.4,2.47,2.47,0,0,0,.66.17v.15H86.16v-.15a3.13,3.13,0,0,0,.74-.21,1.41,1.41,0,0,0,.54-.36.64.64,0,0,0,.1-.26,3.86,3.86,0,0,0,.07-.41c0-.16,0-.32,0-.5s0-.36,0-.52,0-.34,0-.59,0-.52,0-.81,0-.6,0-.91V6c0-.19,0-.36,0-.52a4.3,4.3,0,0,0-.07-.43.7.7,0,0,0-.14-.3,1.21,1.21,0,0,0-.54-.38,2.94,2.94,0,0,0-.72-.16V4.06h4.62v.16l-.47.09a1.49,1.49,0,0,0-.45.19,1.22,1.22,0,0,0-.34.37,1.24,1.24,0,0,0-.15.58q0,.54,0,1.17V9.38h6.11V6.89c0-.27,0-.57,0-.91l0-.61a1.23,1.23,0,0,0-.15-.52,1.19,1.19,0,0,0-.64-.52,2.84,2.84,0,0,0-.71-.11V4.06H98.6v.16a2.74,2.74,0,0,0-.73.2,1.11,1.11,0,0,0-.52.48.87.87,0,0,0-.1.3c0,.13,0,.27,0,.43s0,.32,0,.49v5.06c0,.29,0,.59,0,.9s0,.65,0,1,0,.57,0,.83a1,1,0,0,0,.12.51,1,1,0,0,0,.54.44,3.34,3.34,0,0,0,.74.17v.15Z"/><path class="cls-2" d="M109.51,15.2H100v-.15a3.17,3.17,0,0,0,.72-.2,1.57,1.57,0,0,0,.55-.39.68.68,0,0,0,.12-.27c0-.12.06-.26.09-.41s0-.32,0-.49,0-.34,0-.5V12.2c0-.25,0-.52,0-.81s0-.6,0-.91V6.57c0-.19,0-.38,0-.58s0-.38,0-.55A2.86,2.86,0,0,0,101.5,5a.6.6,0,0,0-.15-.31,1,1,0,0,0-.49-.31,5.53,5.53,0,0,0-.68-.13V4.06h8.54l1,2.55-.15.08a7.59,7.59,0,0,0-2.35-2.1,3.4,3.4,0,0,0-1-.22,14,14,0,0,0-1.73-.09l-.68,0-.5,0c0,.17,0,.51,0,1s0,1.11,0,1.79v1c0,.27,0,.49,0,.66s0,.3,0,.39v.17h.84l.61,0a4.29,4.29,0,0,0,.5-.07A2.64,2.64,0,0,0,106,9a1.87,1.87,0,0,0,.51-.45,2.69,2.69,0,0,0,.31-.61c.07-.24.14-.5.2-.79h.19V12h-.19a5.05,5.05,0,0,0-.37-1,2.58,2.58,0,0,0-.54-.79,2,2,0,0,0-.59-.36,2.83,2.83,0,0,0-.82-.17l-.38,0h-1a3.53,3.53,0,0,0,0,.64v1.85c0,.17,0,.33,0,.48s0,.27,0,.37c0,.33,0,.65.05.94a1.64,1.64,0,0,0,.18.66,1,1,0,0,0,.67.31,6.76,6.76,0,0,0,1.14.09H106c.27,0,.56,0,.85-.08a3.36,3.36,0,0,0,.92-.24,3.17,3.17,0,0,0,.8-.51,4.75,4.75,0,0,0,.75-.79,10.75,10.75,0,0,0,.75-1.14l.17.05Z"/><path class="cls-2" d="M120.22,4.43a2.54,2.54,0,0,0-.57.4,4.25,4.25,0,0,0-.51.59l-.52.78c-.12.19-.29.46-.51.79s-.45.69-.68,1l-.68,1-.51.78V13c0,.3,0,.59,0,.87a1.23,1.23,0,0,0,.15.6,1.08,1.08,0,0,0,.61.45,6.62,6.62,0,0,0,.71.17v.15H113v-.15a3.41,3.41,0,0,0,.71-.15,1.63,1.63,0,0,0,.64-.49.49.49,0,0,0,.11-.26,3.66,3.66,0,0,0,.07-.42c0-.15,0-.32,0-.49v-.51c0-.29,0-.64,0-1V10.25l-.18-.29L114,9.35l-.49-.82c-.19-.3-.36-.59-.54-.87l-.49-.8-.39-.6-.54-.82a5.07,5.07,0,0,0-.48-.64,2.88,2.88,0,0,0-.49-.41,1,1,0,0,0-.55-.17V4.06h4.69v.16l-.46,0a2.84,2.84,0,0,0-.44.1.91.91,0,0,0-.32.19.39.39,0,0,0-.13.32,1.56,1.56,0,0,0,.23.61c.15.27.3.55.47.82s.25.41.4.68l.51.83.57.91c.19.31.37.6.53.88.14-.2.3-.45.5-.75l.59-.93.58-.9.41-.68.17-.29a3.59,3.59,0,0,0,.17-.34,2.39,2.39,0,0,0,.15-.37A1.06,1.06,0,0,0,118.7,5a.56.56,0,0,0-.12-.38.83.83,0,0,0-.32-.22,1.85,1.85,0,0,0-.42-.11l-.45-.07V4.06H121v.16A2.49,2.49,0,0,0,120.22,4.43Z"/><rect class="cls-2" x="3.31" y="88.46" width="160.9" height="0.46"/><rect class="cls-2" x="3.31" y="104.52" width="160.9" height="0.46"/><path class="cls-2" d="M54.57,95.44a3.36,3.36,0,0,1-.49.82,3.41,3.41,0,0,1-.7.61,4.25,4.25,0,0,1-1.75.64c-.33,0-.67.09-1,.11s-.66,0-1,0h-.84v1.46c0,.17,0,.34,0,.49s0,.31,0,.48c0,.33,0,.62,0,.85a1.06,1.06,0,0,0,.17.59,1.18,1.18,0,0,0,.48.4,2.11,2.11,0,0,0,1,.24v.15h-5v-.15a4.73,4.73,0,0,0,.74-.19,1.25,1.25,0,0,0,.56-.37.67.67,0,0,0,.12-.28,3.66,3.66,0,0,0,.07-.42c0-.15,0-.32,0-.49s0-.35,0-.51,0-.34,0-.59,0-.52,0-.81V93.12q0-.28,0-.54a4.34,4.34,0,0,0-.08-.46.81.81,0,0,0-.15-.31,1.17,1.17,0,0,0-.6-.33c-.24-.06-.5-.1-.78-.15v-.15h4.4a14,14,0,0,1,1.81.1,4,4,0,0,1,1.48.49,3,3,0,0,1,1.13,1.05,2.84,2.84,0,0,1,.45,1.61A2.87,2.87,0,0,1,54.57,95.44Zm-2-2.71a2.9,2.9,0,0,0-1.19-1.06,3.11,3.11,0,0,0-.79-.23,6.15,6.15,0,0,0-.87-.06l-.5,0-.29,0a.85.85,0,0,1,0,.17,1.46,1.46,0,0,0,0,.17q0,.12,0,.3c0,.13,0,.32,0,.55s0,.8,0,1.32,0,1,0,1.52v2c.42,0,.82,0,1.19,0a4.26,4.26,0,0,0,1-.21,3,3,0,0,0,1.52-1.12,3.08,3.08,0,0,0,.52-1.76A2.77,2.77,0,0,0,52.62,92.73Z"/><path class="cls-2" d="M63.47,102.32v-.15a3,3,0,0,0,1-.21,1.11,1.11,0,0,0,.52-.37.69.69,0,0,0,0-.18c0-.09,0-.2,0-.33s0-.25,0-.38,0-.27,0-.39c0-.34,0-.69,0-1V96.81H59v3.33c0,.3,0,.59,0,.87a1,1,0,0,0,.14.58,1.19,1.19,0,0,0,.52.41,2.45,2.45,0,0,0,.67.17v.15H55.74v-.15a3.21,3.21,0,0,0,.75-.21,1.47,1.47,0,0,0,.54-.37.67.67,0,0,0,.1-.25c0-.12,0-.26.06-.41s0-.32,0-.5,0-.36,0-.52,0-.34,0-.59,0-.52,0-.81,0-.6,0-.91V93.13a4.17,4.17,0,0,0,0-.52,2.58,2.58,0,0,0-.07-.43.6.6,0,0,0-.14-.3,1.11,1.11,0,0,0-.53-.38,3.46,3.46,0,0,0-.72-.17v-.15H60.4v.15l-.46.1a1.3,1.3,0,0,0-.45.19,1.07,1.07,0,0,0-.34.36,1.28,1.28,0,0,0-.16.59c0,.36,0,.75,0,1.17s0,.82,0,1.2V96.5h6.11V94c0-.27,0-.57,0-.91s0-.4,0-.61a1.1,1.1,0,0,0-.15-.52,1.14,1.14,0,0,0-.63-.52,3.64,3.64,0,0,0-.71-.12v-.15h4.65v.15a3.12,3.12,0,0,0-.72.21,1.16,1.16,0,0,0-.53.47,1,1,0,0,0-.09.31c0,.13,0,.27,0,.43s0,.32,0,.49v6c0,.3,0,.65,0,1s0,.57,0,.82a1.08,1.08,0,0,0,.11.52,1.15,1.15,0,0,0,.54.44,3.43,3.43,0,0,0,.75.17v.15Z"/><path class="cls-2" d="M69.7,102.32v-.15a3.17,3.17,0,0,0,.72-.2,1.66,1.66,0,0,0,.57-.41.57.57,0,0,0,.11-.26,2.12,2.12,0,0,0,.06-.4,3.91,3.91,0,0,0,0-.49c0-.17,0-.34,0-.5s0-.34,0-.59,0-.52,0-.81V93.13a3.89,3.89,0,0,0-.09-.95.7.7,0,0,0-.14-.3,1.11,1.11,0,0,0-.53-.38,3.46,3.46,0,0,0-.72-.17v-.15h4.62v.15a5.74,5.74,0,0,0-.69.17,1,1,0,0,0-.57.5,1.36,1.36,0,0,0-.15.67c0,.26,0,.52,0,.75s0,.52,0,.77,0,.51,0,.77v5.18c0,.3,0,.59,0,.87a1.12,1.12,0,0,0,.13.58,1.2,1.2,0,0,0,.59.41,3.29,3.29,0,0,0,.73.17v.15Z"/><path class="cls-2" d="M85.62,102.32H75.69v-.15a4.37,4.37,0,0,0,.77-.2,1.52,1.52,0,0,0,.59-.39.68.68,0,0,0,.13-.27,2.26,2.26,0,0,0,.09-.41c0-.16,0-.32,0-.49a4.32,4.32,0,0,0,0-.5v-.59c0-.25,0-.52,0-.81s0-.6,0-.91V93.16a4.17,4.17,0,0,0,0-.52,2.29,2.29,0,0,0-.07-.42.6.6,0,0,0-.14-.3,1.31,1.31,0,0,0-.58-.4,3.68,3.68,0,0,0-.76-.19v-.15h4.93v.15l-.47.1a1.87,1.87,0,0,0-.53.2,1.23,1.23,0,0,0-.43.39,1.24,1.24,0,0,0-.19.68c0,.36,0,.69,0,1s0,.59,0,.88,0,.59,0,.9v2.81c0,.27,0,.55,0,.83s0,.6,0,1,0,.65,0,1a1.32,1.32,0,0,0,.16.66.71.71,0,0,0,.25.16A2.77,2.77,0,0,0,80,102l.57.09a4.3,4.3,0,0,0,.62,0h.39l.6,0,.66-.07a4.39,4.39,0,0,0,.61-.12,3.94,3.94,0,0,0,1-.45,3.58,3.58,0,0,0,.7-.64,4.38,4.38,0,0,0,.5-.79c.13-.29.26-.58.38-.89l.16,0Z"/><path class="cls-2" d="M96.58,102.32H86.65v-.15a4.27,4.27,0,0,0,.76-.2,1.64,1.64,0,0,0,.6-.39.85.85,0,0,0,.13-.27,2.29,2.29,0,0,0,.08-.41c0-.16,0-.32.06-.49s0-.34,0-.5,0-.34,0-.59,0-.52,0-.81,0-.6,0-.91V93.16c0-.19,0-.36,0-.52a3.66,3.66,0,0,0-.07-.42.7.7,0,0,0-.14-.3,1.37,1.37,0,0,0-.58-.4,3.77,3.77,0,0,0-.77-.19v-.15h4.94v.15l-.48.1a1.93,1.93,0,0,0-.52.2,1.23,1.23,0,0,0-.43.39,1.24,1.24,0,0,0-.19.68q0,.54,0,1c0,.3,0,.59,0,.88s0,.59,0,.9v2.81c0,.27,0,.55,0,.83s0,.6,0,1,0,.65,0,1a1.31,1.31,0,0,0,.17.66.75.75,0,0,0,.24.16,3.52,3.52,0,0,0,.45.13l.57.09a4.4,4.4,0,0,0,.62,0h.4l.59,0,.67-.07a4,4,0,0,0,.6-.12,3.66,3.66,0,0,0,1-.45,3.37,3.37,0,0,0,.71-.64,4.32,4.32,0,0,0,.49-.79c.14-.29.26-.58.39-.89l.15,0Z"/><path class="cls-2" d="M97.79,102.32v-.15a3.17,3.17,0,0,0,.72-.2,1.54,1.54,0,0,0,.56-.41.7.7,0,0,0,.12-.26c0-.11,0-.25.06-.4a3.91,3.91,0,0,0,0-.49c0-.17,0-.34,0-.5s0-.34,0-.59,0-.52,0-.81,0-.6,0-.91V93.13c0-.19,0-.36,0-.52a4.3,4.3,0,0,0-.07-.43.7.7,0,0,0-.14-.3,1.14,1.14,0,0,0-.54-.38,3.46,3.46,0,0,0-.72-.17v-.15h4.63v.15a4.94,4.94,0,0,0-.69.17,1,1,0,0,0-.58.5,1.48,1.48,0,0,0-.14.67c0,.26,0,.52,0,.75s0,.52,0,.77v6c0,.3,0,.59,0,.87a1.11,1.11,0,0,0,.14.58,1.2,1.2,0,0,0,.59.41,3.29,3.29,0,0,0,.73.17v.15Z"/><path class="cls-2" d="M112.91,95.44a3.36,3.36,0,0,1-.49.82,3.41,3.41,0,0,1-.7.61,4.25,4.25,0,0,1-1.75.64c-.33,0-.67.09-1,.11s-.66,0-1,0h-.84v1.46c0,.17,0,.34,0,.49s0,.31,0,.48c0,.33,0,.62,0,.85a1.06,1.06,0,0,0,.17.59,1.18,1.18,0,0,0,.48.4,2.11,2.11,0,0,0,1,.24v.15h-5v-.15a4.73,4.73,0,0,0,.74-.19,1.25,1.25,0,0,0,.56-.37.67.67,0,0,0,.12-.28,3.66,3.66,0,0,0,.07-.42c0-.15,0-.32,0-.49s0-.35,0-.51,0-.34,0-.59,0-.52,0-.81V93.12q0-.28,0-.54a4.34,4.34,0,0,0-.08-.46.81.81,0,0,0-.15-.31,1.17,1.17,0,0,0-.6-.33c-.24-.06-.5-.1-.78-.15v-.15h4.4a14,14,0,0,1,1.81.1,4,4,0,0,1,1.48.49,3,3,0,0,1,1.13,1.05,2.84,2.84,0,0,1,.45,1.61A2.87,2.87,0,0,1,112.91,95.44Zm-2-2.71a2.9,2.9,0,0,0-1.19-1.06,3.11,3.11,0,0,0-.79-.23,6.15,6.15,0,0,0-.87-.06l-.5,0-.29,0a.85.85,0,0,1,0,.17,1.46,1.46,0,0,0,0,.17q0,.12,0,.3c0,.13,0,.32,0,.55s0,.8,0,1.32,0,1,0,1.52v2c.42,0,.82,0,1.19,0a4.26,4.26,0,0,0,1-.21,3,3,0,0,0,1.52-1.12,3.08,3.08,0,0,0,.52-1.76A2.77,2.77,0,0,0,111,92.73Z"/><path class="cls-2" d="M121.74,100.6a3,3,0,0,1-.84,1,3.64,3.64,0,0,1-1.28.62,6.3,6.3,0,0,1-1.62.2,8,8,0,0,1-1.3-.09,5.82,5.82,0,0,1-.9-.23,3.53,3.53,0,0,1-.53-.24.8.8,0,0,0-.23-.11s-.1.07-.2.19l-.28.36h-.14l0-3.08h.15a5.27,5.27,0,0,0,.36.81,6.19,6.19,0,0,0,.47.74,4,4,0,0,0,.54.61,3,3,0,0,0,.55.41,4.7,4.7,0,0,0,.7.27,2.49,2.49,0,0,0,.83.14,2.73,2.73,0,0,0,1.86-.62,2.17,2.17,0,0,0,.71-1.7,1.81,1.81,0,0,0-.14-.76,1.79,1.79,0,0,0-.38-.56,2.13,2.13,0,0,0-.56-.41,6.42,6.42,0,0,0-.7-.31l-.65-.23-.52-.18-.49-.17c-.17-.06-.38-.13-.61-.23a3.16,3.16,0,0,1-1.87-1.86,2.46,2.46,0,0,1-.18-.94,3.25,3.25,0,0,1,.31-1.44,3,3,0,0,1,.82-1,3.42,3.42,0,0,1,1.19-.6,5.05,5.05,0,0,1,1.41-.19,5.17,5.17,0,0,1,1.2.12,4.36,4.36,0,0,1,.81.25,2.52,2.52,0,0,1,.48.26l.18.11s.09-.06.19-.18.19-.25.27-.37h.17v2.86h-.17a5.86,5.86,0,0,0-.48-1,4.65,4.65,0,0,0-.68-.89,3.29,3.29,0,0,0-.88-.65,2.5,2.5,0,0,0-1.1-.24,2.75,2.75,0,0,0-.91.14,2.14,2.14,0,0,0-.74.41,1.89,1.89,0,0,0-.49.69,2.35,2.35,0,0,0-.18.94,1.76,1.76,0,0,0,.49,1.31,3.48,3.48,0,0,0,1.28.79c.21.09.4.16.58.22l.53.18c.18.06.36.11.54.18l.56.2a3.63,3.63,0,0,1,1.63,1.12,2.9,2.9,0,0,1,.58,1.83A2.86,2.86,0,0,1,121.74,100.6Z"/><path class="cls-3" d="M50.39,68.53A6.94,6.94,0,0,0,53.21,68,3.08,3.08,0,0,0,54.59,65V40.91a3,3,0,0,0-1.24-2.85,8.49,8.49,0,0,0-3-.65V36.15H67.24v1.26a8.08,8.08,0,0,0-3,.58,3,3,0,0,0-1.41,2.92V51.24H74.65V40.91A3,3,0,0,0,73.31,38a8.36,8.36,0,0,0-3.08-.6V36.15H87.17v1.26a7.8,7.8,0,0,0-3,.63,3,3,0,0,0-1.33,2.87V65a3,3,0,0,0,1.48,3,6.86,6.86,0,0,0,2.84.54v1.26H70.23V68.53a7.13,7.13,0,0,0,3-.58A3.06,3.06,0,0,0,74.65,65V53.55H62.79V65a3.05,3.05,0,0,0,1.5,3,7.85,7.85,0,0,0,2.95.51v1.26H50.39Z"/><path class="cls-3" d="M88.1,68.53a5.19,5.19,0,0,0,3.3-1c.56-.58.84-1.75.84-3.52V42c0-1.88-.29-3.05-.85-3.55a6.41,6.41,0,0,0-3.29-1V36.15h16c4.25,0,7.48.68,9.69,2.06s3.32,3.75,3.32,7.1a8.74,8.74,0,0,1-1.3,4.61,9.06,9.06,0,0,1-4.29,3.46A15.28,15.28,0,0,1,107,54.5q-2.26.2-6.71.2V64c0,1.83.31,3,.92,3.6a5.55,5.55,0,0,0,3.45,1v1.26H88.1ZM106.24,52q2.36-1.52,2.36-6.49a11.5,11.5,0,0,0-1.14-5.5c-.77-1.39-2.22-2.09-4.38-2.09a4.79,4.79,0,0,0-2.13.35,1.44,1.44,0,0,0-.64,1.38V53Q104.75,52.9,106.24,52Z"/><path class="cls-3" d="M84.55,56.76a2.87,2.87,0,0,1-.19-1,2.28,2.28,0,0,1,.8-1.78,3.36,3.36,0,0,1,2.31-.71,2.87,2.87,0,0,1,1.93.57,1.73,1.73,0,0,1,0,2.7,5.13,5.13,0,0,1-1.73,1l2.38,3.36c.44-.57.72-1,.86-1.2a2.09,2.09,0,0,0,.33-1c0-.26-.06-.43-.18-.5a3.06,3.06,0,0,0-.87-.2v-.37H93.5v.37a1.71,1.71,0,0,0-.87.28,7,7,0,0,0-.85,1.28c-.07.12-.24.38-.52.76l-.82,1.12a6.29,6.29,0,0,0,1,1.12,1.35,1.35,0,0,0,.87.33,1,1,0,0,0,.64-.23,1.62,1.62,0,0,0,.29-.38l.31.18a4.69,4.69,0,0,1-.75,1.19,2.36,2.36,0,0,1-1.79.83,2.4,2.4,0,0,1-1.41-.48,6.24,6.24,0,0,1-1-.91,10.26,10.26,0,0,1-1.48.9,4.87,4.87,0,0,1-2.09.48,3.18,3.18,0,0,1-2-.74,2.38,2.38,0,0,1-.91-2,3.17,3.17,0,0,1,1.13-2.44,8.65,8.65,0,0,1,2-1.21A8.82,8.82,0,0,1,84.55,56.76Zm3,6.23c.15-.08.38-.22.69-.43l-1-1.42-1-1.51-.76-1.13a3.65,3.65,0,0,0-.83.61,1.4,1.4,0,0,0-.34,1,3.53,3.53,0,0,0,.79,2,2.17,2.17,0,0,0,1.72,1.07A1.84,1.84,0,0,0,87.57,63Zm.51-6.33a1.15,1.15,0,0,0,.4-.92,2.67,2.67,0,0,0-.38-1.29A1.19,1.19,0,0,0,87,53.79a.91.91,0,0,0-.48.13.88.88,0,0,0-.34.78,2,2,0,0,0,.26.95,11.64,11.64,0,0,0,.9,1.38A2.11,2.11,0,0,0,88.08,56.66Z"/></svg>