<?xml version="1.0" encoding="UTF-8"?> <svg xmlns="http://www.w3.org/2000/svg" viewBox="0 0 175.07 22.28"><defs><style>.cls-1{fill:#72e34d;}</style></defs><title>plc-logo</title><g id="Layer_2" data-name="Layer 2"><g id="Layer_1-2" data-name="Layer 1"><path d="M-84.35-1582.18v3.89c0,3.2-2,4.6-5.29,4.6h-2.52v8.68h-2.93v-21.78h5.45c3.3,0,5.29,1.4,5.29,4.61m-2.93.56c0-1.93-.87-2.58-2.48-2.58h-2.4v7.9h2.4c1.61,0,2.48-.65,2.48-2.55Z" transform="translate(95.09 1587.04)"></path><path d="M-74.73-1587h.24c3.3,0,5.29,1.4,5.29,4.61v13.07c0,3.2-2,4.6-5.29,4.6h-.24c-3.3,0-5.29-1.4-5.29-4.6v-13.07c0-3.24,2-4.61,5.29-4.61m.12,19.7c1.62,0,2.49-.65,2.49-2.58v-11.95c0-1.93-.87-2.58-2.49-2.58s-2.49.65-2.49,2.58v11.95c0,1.93.87,2.58,2.49,2.58" transform="translate(95.09 1587.04)"></path><rect x="30.71" y="0.25" width="2.93" height="21.78"></rect><polygon points="38.51 22.03 38.51 0.25 41.43 0.25 46.91 15.25 46.91 0.25 49.62 0.25 49.62 22.03 46.81 22.03 41.22 6.53 41.22 22.03 38.51 22.03"></polygon><polygon points="64.26 2.83 60.46 2.83 60.46 22.03 57.54 22.03 57.54 2.83 53.74 2.83 53.74 0.25 64.26 0.25 64.26 2.83"></polygon><polygon points="83.3 22.03 74.49 22.03 74.49 0.25 77.42 0.25 77.42 19.38 83.3 19.38 83.3 22.03"></polygon><path d="M11-1569.36c0,3.26-2,4.6-5.29,4.6H5.45c-3.3,0-5.29-1.3-5.29-4.6v-13.07c0-3.14,2-4.61,5.29-4.61H5.7c3.3,0,5.29,1.47,5.29,4.61v3H8.06v-2.46c0-1.93-.87-2.58-2.49-2.58s-2.49.65-2.49,2.58v11.95c0,1.93.88,2.58,2.49,2.58s2.49-.65,2.49-2.58v-3.64H5.45V-1576H11Z" transform="translate(95.09 1587.04)"></path><polygon points="113.69 0.25 113.69 9.65 118.82 9.65 118.82 0.25 121.75 0.25 121.75 22.03 118.82 22.03 118.82 12.26 113.69 12.26 113.69 22.03 110.76 22.03 110.76 0.25 113.69 0.25"></polygon><polygon points="136.39 2.83 132.6 2.83 132.6 22.03 129.67 22.03 129.67 2.83 125.88 2.83 125.88 0.25 136.39 0.25 136.39 2.83"></polygon><rect x="140.58" y="0.25" width="2.93" height="21.78"></rect><polygon points="148.38 22.03 148.38 0.25 151.31 0.25 156.78 15.25 156.78 0.25 159.49 0.25 159.49 22.03 156.69 22.03 151.09 6.53 151.09 22.03 148.38 22.03"></polygon><path d="M80-1569.36c0,3.26-2,4.6-5.29,4.6h-.24c-3.3,0-5.29-1.3-5.29-4.6v-13.07c0-3.14,2-4.61,5.29-4.61h.24c3.3,0,5.29,1.47,5.29,4.61v3H77.06v-2.46c0-1.93-.87-2.58-2.49-2.58s-2.49.65-2.49,2.58v11.95c0,1.93.87,2.58,2.49,2.58s2.49-.65,2.49-2.58v-3.64H74.45V-1576H80Z" transform="translate(95.09 1587.04)"></path><path class="cls-1" d="M-4.25-1585.18a1.85,1.85,0,0,1-1.85,1.86A1.86,1.86,0,0,1-8-1585.18,1.86,1.86,0,0,1-6.1-1587a1.86,1.86,0,0,1,1.85,1.86" transform="translate(95.09 1587.04)"></path><path class="cls-1" d="M-4.25-1566.62a1.85,1.85,0,0,1-1.85,1.86A1.86,1.86,0,0,1-8-1566.62a1.86,1.86,0,0,1,1.86-1.86,1.85,1.85,0,0,1,1.85,1.86" transform="translate(95.09 1587.04)"></path><path class="cls-1" d="M-4.25-1572.81a1.85,1.85,0,0,1-1.85,1.86A1.86,1.86,0,0,1-8-1572.81a1.85,1.85,0,0,1,1.86-1.85,1.85,1.85,0,0,1,1.85,1.85" transform="translate(95.09 1587.04)"></path><path class="cls-1" d="M-4.25-1579a1.85,1.85,0,0,1-1.85,1.85A1.85,1.85,0,0,1-8-1579a1.86,1.86,0,0,1,1.86-1.86A1.85,1.85,0,0,1-4.25-1579" transform="translate(95.09 1587.04)"></path></g></g></svg> 