<svg width="213" height="152" xmlns="http://www.w3.org/2000/svg" xmlns:xlink="http://www.w3.org/1999/xlink" xml:space="preserve" overflow="hidden"><g transform="translate(-2711 -771)"><path d="M2713.5 816.168C2713.5 792.603 2732.6 773.5 2756.17 773.5L2878.83 773.5C2902.4 773.5 2921.5 792.603 2921.5 816.168L2921.5 877.832C2921.5 901.397 2902.4 920.5 2878.83 920.5L2756.17 920.5C2732.6 920.5 2713.5 901.397 2713.5 877.832Z" stroke="#000000" stroke-width="4.58333" stroke-miterlimit="8" fill-rule="evenodd"/><path d="M2740 834 2764.78 791 2868.22 791 2893 834Z" fill="#FFFFFF" fill-rule="evenodd"/><path d="M2817.5 791.5 2817.5 834.92" stroke="#000000" stroke-width="4.58333" stroke-miterlimit="8" fill="none" fill-rule="evenodd"/><path d="M2801 844.5C2801 842.015 2803.24 840 2806 840 2808.76 840 2811 842.015 2811 844.5 2811 846.985 2808.76 849 2806 849 2803.24 849 2801 846.985 2801 844.5Z" fill="#FFFFFF" fill-rule="evenodd"/><path d="M2787 844.5C2787 842.015 2789.01 840 2791.5 840 2793.99 840 2796 842.015 2796 844.5 2796 846.985 2793.99 849 2791.5 849 2789.01 849 2787 846.985 2787 844.5Z" fill="#FFFFFF" fill-rule="evenodd"/><path d="M2773 844.5C2773 842.015 2775.01 840 2777.5 840 2779.99 840 2782 842.015 2782 844.5 2782 846.985 2779.99 849 2777.5 849 2775.01 849 2773 846.985 2773 844.5Z" fill="#FFFFFF" fill-rule="evenodd"/><path d="M2759 844.5C2759 842.015 2761.01 840 2763.5 840 2765.99 840 2768 842.015 2768 844.5 2768 846.985 2765.99 849 2763.5 849 2761.01 849 2759 846.985 2759 844.5Z" fill="#FFFFFF" fill-rule="evenodd"/><path d="M2745 844.5C2745 842.015 2747.01 840 2749.5 840 2751.99 840 2754 842.015 2754 844.5 2754 846.985 2751.99 849 2749.5 849 2747.01 849 2745 846.985 2745 844.5Z" fill="#FFFFFF" fill-rule="evenodd"/><path d="M2731 844.5C2731 842.015 2733.01 840 2735.5 840 2737.99 840 2740 842.015 2740 844.5 2740 846.985 2737.99 849 2735.5 849 2733.01 849 2731 846.985 2731 844.5Z" fill="#FFFFFF" fill-rule="evenodd"/><path d="M2894 844.5C2894 842.015 2896.01 840 2898.5 840 2900.99 840 2903 842.015 2903 844.5 2903 846.985 2900.99 849 2898.5 849 2896.01 849 2894 846.985 2894 844.5Z" fill="#FFFFFF" fill-rule="evenodd"/><path d="M2880 844.5C2880 842.015 2882.01 840 2884.5 840 2886.99 840 2889 842.015 2889 844.5 2889 846.985 2886.99 849 2884.5 849 2882.01 849 2880 846.985 2880 844.5Z" fill="#FFFFFF" fill-rule="evenodd"/><path d="M2865 844.5C2865 842.015 2867.24 840 2870 840 2872.76 840 2875 842.015 2875 844.5 2875 846.985 2872.76 849 2870 849 2867.24 849 2865 846.985 2865 844.5Z" fill="#FFFFFF" fill-rule="evenodd"/><path d="M2851 844.5C2851 842.015 2853.01 840 2855.5 840 2857.99 840 2860 842.015 2860 844.5 2860 846.985 2857.99 849 2855.5 849 2853.01 849 2851 846.985 2851 844.5Z" fill="#FFFFFF" fill-rule="evenodd"/><path d="M2837 844.5C2837 842.015 2839.01 840 2841.5 840 2843.99 840 2846 842.015 2846 844.5 2846 846.985 2843.99 849 2841.5 849 2839.01 849 2837 846.985 2837 844.5Z" fill="#FFFFFF" fill-rule="evenodd"/><path d="M2823 844.5C2823 842.015 2825.01 840 2827.5 840 2829.99 840 2832 842.015 2832 844.5 2832 846.985 2829.99 849 2827.5 849 2825.01 849 2823 846.985 2823 844.5Z" fill="#FFFFFF" fill-rule="evenodd"/><path d="M2836 866.5C2836 864.567 2837.79 863 2840 863 2842.21 863 2844 864.567 2844 866.5 2844 868.433 2842.21 870 2840 870 2837.79 870 2836 868.433 2836 866.5Z" fill="#FFFFFF" fill-rule="evenodd"/><path d="M2825 866.5C2825 864.567 2826.57 863 2828.5 863 2830.43 863 2832 864.567 2832 866.5 2832 868.433 2830.43 870 2828.5 870 2826.57 870 2825 868.433 2825 866.5Z" fill="#FFFFFF" fill-rule="evenodd"/><path d="M2813 866.5C2813 864.567 2814.57 863 2816.5 863 2818.43 863 2820 864.567 2820 866.5 2820 868.433 2818.43 870 2816.5 870 2814.57 870 2813 868.433 2813 866.5Z" fill="#FFFFFF" fill-rule="evenodd"/><path d="M2801 866.5C2801 864.567 2802.79 863 2805 863 2807.21 863 2809 864.567 2809 866.5 2809 868.433 2807.21 870 2805 870 2802.79 870 2801 868.433 2801 866.5Z" fill="#FFFFFF" fill-rule="evenodd"/><path d="M2790 866.5C2790 864.567 2791.57 863 2793.5 863 2795.43 863 2797 864.567 2797 866.5 2797 868.433 2795.43 870 2793.5 870 2791.57 870 2790 868.433 2790 866.5Z" fill="#FFFFFF" fill-rule="evenodd"/><path d="M2838 887C2838 884.791 2839.79 883 2842 883 2844.21 883 2846 884.791 2846 887 2846 889.209 2844.21 891 2842 891 2839.79 891 2838 889.209 2838 887Z" fill="#FFFFFF" fill-rule="evenodd"/><path d="M2825 887C2825 884.791 2827.01 883 2829.5 883 2831.99 883 2834 884.791 2834 887 2834 889.209 2831.99 891 2829.5 891 2827.01 891 2825 889.209 2825 887Z" fill="#FFFFFF" fill-rule="evenodd"/><path d="M2813 887C2813 884.791 2814.79 883 2817 883 2819.21 883 2821 884.791 2821 887 2821 889.209 2819.21 891 2817 891 2814.79 891 2813 889.209 2813 887Z" fill="#FFFFFF" fill-rule="evenodd"/><path d="M2800 887C2800 884.791 2801.79 883 2804 883 2806.21 883 2808 884.791 2808 887 2808 889.209 2806.21 891 2804 891 2801.79 891 2800 889.209 2800 887Z" fill="#FFFFFF" fill-rule="evenodd"/><path d="M2787 887C2787 884.791 2788.79 883 2791 883 2793.21 883 2795 884.791 2795 887 2795 889.209 2793.21 891 2791 891 2788.79 891 2787 889.209 2787 887Z" fill="#FFFFFF" fill-rule="evenodd"/><path d="M2840 908.5C2840 906.015 2842.01 904 2844.5 904 2846.99 904 2849 906.015 2849 908.5 2849 910.985 2846.99 913 2844.5 913 2842.01 913 2840 910.985 2840 908.5Z" fill="#FFFFFF" fill-rule="evenodd"/><path d="M2826 908.5C2826 906.015 2828.01 904 2830.5 904 2832.99 904 2835 906.015 2835 908.5 2835 910.985 2832.99 913 2830.5 913 2828.01 913 2826 910.985 2826 908.5Z" fill="#FFFFFF" fill-rule="evenodd"/><path d="M2812 908.5C2812 906.015 2814.01 904 2816.5 904 2818.99 904 2821 906.015 2821 908.5 2821 910.985 2818.99 913 2816.5 913 2814.01 913 2812 910.985 2812 908.5Z" fill="#FFFFFF" fill-rule="evenodd"/><path d="M2798 908.5C2798 906.015 2800.01 904 2802.5 904 2804.99 904 2807 906.015 2807 908.5 2807 910.985 2804.99 913 2802.5 913 2800.01 913 2798 910.985 2798 908.5Z" fill="#FFFFFF" fill-rule="evenodd"/><path d="M2784 908.5C2784 906.015 2786.01 904 2788.5 904 2790.99 904 2793 906.015 2793 908.5 2793 910.985 2790.99 913 2788.5 913 2786.01 913 2784 910.985 2784 908.5Z" fill="#FFFFFF" fill-rule="evenodd"/><path d="M2769 866.5C2769 864.567 2770.57 863 2772.5 863 2774.43 863 2776 864.567 2776 866.5 2776 868.433 2774.43 870 2772.5 870 2770.57 870 2769 868.433 2769 866.5Z" fill="#FFFFFF" fill-rule="evenodd"/><path d="M2757 866.5C2757 864.567 2758.79 863 2761 863 2763.21 863 2765 864.567 2765 866.5 2765 868.433 2763.21 870 2761 870 2758.79 870 2757 868.433 2757 866.5Z" fill="#FFFFFF" fill-rule="evenodd"/><path d="M2746 866.5C2746 864.567 2747.57 863 2749.5 863 2751.43 863 2753 864.567 2753 866.5 2753 868.433 2751.43 870 2749.5 870 2747.57 870 2746 868.433 2746 866.5Z" fill="#FFFFFF" fill-rule="evenodd"/><path d="M2766 887C2766 884.791 2767.79 883 2770 883 2772.21 883 2774 884.791 2774 887 2774 889.209 2772.21 891 2770 891 2767.79 891 2766 889.209 2766 887Z" fill="#FFFFFF" fill-rule="evenodd"/><path d="M2753 887C2753 884.791 2754.79 883 2757 883 2759.21 883 2761 884.791 2761 887 2761 889.209 2759.21 891 2757 891 2754.79 891 2753 889.209 2753 887Z" fill="#FFFFFF" fill-rule="evenodd"/><path d="M2740 887C2740 884.791 2742.01 883 2744.5 883 2746.99 883 2749 884.791 2749 887 2749 889.209 2746.99 891 2744.5 891 2742.01 891 2740 889.209 2740 887Z" fill="#FFFFFF" fill-rule="evenodd"/><path d="M2763 908.5C2763 906.015 2765.01 904 2767.5 904 2769.99 904 2772 906.015 2772 908.5 2772 910.985 2769.99 913 2767.5 913 2765.01 913 2763 910.985 2763 908.5Z" fill="#FFFFFF" fill-rule="evenodd"/><path d="M2749 908.5C2749 906.015 2751.01 904 2753.5 904 2755.99 904 2758 906.015 2758 908.5 2758 910.985 2755.99 913 2753.5 913 2751.01 913 2749 910.985 2749 908.5Z" fill="#FFFFFF" fill-rule="evenodd"/><path d="M2735 908.5C2735 906.015 2737.01 904 2739.5 904 2741.99 904 2744 906.015 2744 908.5 2744 910.985 2741.99 913 2739.5 913 2737.01 913 2735 910.985 2735 908.5Z" fill="#FFFFFF" fill-rule="evenodd"/><path d="M2879 866.5C2879 864.567 2880.79 863 2883 863 2885.21 863 2887 864.567 2887 866.5 2887 868.433 2885.21 870 2883 870 2880.79 870 2879 868.433 2879 866.5Z" fill="#FFFFFF" fill-rule="evenodd"/><path d="M2868 866.5C2868 864.567 2869.57 863 2871.5 863 2873.43 863 2875 864.567 2875 866.5 2875 868.433 2873.43 870 2871.5 870 2869.57 870 2868 868.433 2868 866.5Z" fill="#FFFFFF" fill-rule="evenodd"/><path d="M2856 866.5C2856 864.567 2857.79 863 2860 863 2862.21 863 2864 864.567 2864 866.5 2864 868.433 2862.21 870 2860 870 2857.79 870 2856 868.433 2856 866.5Z" fill="#FFFFFF" fill-rule="evenodd"/><path d="M2884 887C2884 884.791 2885.79 883 2888 883 2890.21 883 2892 884.791 2892 887 2892 889.209 2890.21 891 2888 891 2885.79 891 2884 889.209 2884 887Z" fill="#FFFFFF" fill-rule="evenodd"/><path d="M2871 887C2871 884.791 2872.79 883 2875 883 2877.21 883 2879 884.791 2879 887 2879 889.209 2877.21 891 2875 891 2872.79 891 2871 889.209 2871 887Z" fill="#FFFFFF" fill-rule="evenodd"/><path d="M2858 887C2858 884.791 2859.79 883 2862 883 2864.21 883 2866 884.791 2866 887 2866 889.209 2864.21 891 2862 891 2859.79 891 2858 889.209 2858 887Z" fill="#FFFFFF" fill-rule="evenodd"/><path d="M2890 908.5C2890 906.015 2892.01 904 2894.5 904 2896.99 904 2899 906.015 2899 908.5 2899 910.985 2896.99 913 2894.5 913 2892.01 913 2890 910.985 2890 908.5Z" fill="#FFFFFF" fill-rule="evenodd"/><path d="M2875 908.5C2875 906.015 2877.24 904 2880 904 2882.76 904 2885 906.015 2885 908.5 2885 910.985 2882.76 913 2880 913 2877.24 913 2875 910.985 2875 908.5Z" fill="#FFFFFF" fill-rule="evenodd"/><path d="M2861 908.5C2861 906.015 2863.24 904 2866 904 2868.76 904 2871 906.015 2871 908.5 2871 910.985 2868.76 913 2866 913 2863.24 913 2861 910.985 2861 908.5Z" fill="#FFFFFF" fill-rule="evenodd"/></g></svg>