<svg width="214" height="152" xmlns="http://www.w3.org/2000/svg" xmlns:xlink="http://www.w3.org/1999/xlink" xml:space="preserve" overflow="hidden"><g transform="translate(-1628 -1595)"><path d="M1630.5 1640.17C1630.5 1616.6 1649.6 1597.5 1673.17 1597.5L1796.83 1597.5C1820.4 1597.5 1839.5 1616.6 1839.5 1640.17L1839.5 1701.83C1839.5 1725.4 1820.4 1744.5 1796.83 1744.5L1673.17 1744.5C1649.6 1744.5 1630.5 1725.4 1630.5 1701.83Z" stroke="#000000" stroke-width="4.58333" stroke-miterlimit="8" fill-rule="evenodd"/><path d="M1658 1664 1682.78 1621 1786.22 1621 1811 1664Z" fill="#FFFFFF" fill-rule="evenodd"/><path d="M1735.5 1621.5 1735.5 1664.92" stroke="#000000" stroke-width="4.58333" stroke-miterlimit="8" fill="none" fill-rule="evenodd"/><path d="M1754 1678C1754 1675.79 1755.57 1674 1757.5 1674 1759.43 1674 1761 1675.79 1761 1678 1761 1680.21 1759.43 1682 1757.5 1682 1755.57 1682 1754 1680.21 1754 1678Z" fill="#FFFFFF" fill-rule="evenodd"/><path d="M1742 1678C1742 1675.79 1743.79 1674 1746 1674 1748.21 1674 1750 1675.79 1750 1678 1750 1680.21 1748.21 1682 1746 1682 1743.79 1682 1742 1680.21 1742 1678Z" fill="#FFFFFF" fill-rule="evenodd"/><path d="M1731 1678C1731 1675.79 1732.57 1674 1734.5 1674 1736.43 1674 1738 1675.79 1738 1678 1738 1680.21 1736.43 1682 1734.5 1682 1732.57 1682 1731 1680.21 1731 1678Z" fill="#FFFFFF" fill-rule="evenodd"/><path d="M1719 1678C1719 1675.79 1720.79 1674 1723 1674 1725.21 1674 1727 1675.79 1727 1678 1727 1680.21 1725.21 1682 1723 1682 1720.79 1682 1719 1680.21 1719 1678Z" fill="#FFFFFF" fill-rule="evenodd"/><path d="M1708 1678C1708 1675.79 1709.57 1674 1711.5 1674 1713.43 1674 1715 1675.79 1715 1678 1715 1680.21 1713.43 1682 1711.5 1682 1709.57 1682 1708 1680.21 1708 1678Z" fill="#FFFFFF" fill-rule="evenodd"/><path d="M1756 1698C1756 1695.79 1757.79 1694 1760 1694 1762.21 1694 1764 1695.79 1764 1698 1764 1700.21 1762.21 1702 1760 1702 1757.79 1702 1756 1700.21 1756 1698Z" fill="#FFFFFF" fill-rule="evenodd"/><path d="M1743 1698C1743 1695.79 1744.79 1694 1747 1694 1749.21 1694 1751 1695.79 1751 1698 1751 1700.21 1749.21 1702 1747 1702 1744.79 1702 1743 1700.21 1743 1698Z" fill="#FFFFFF" fill-rule="evenodd"/><path d="M1730 1698C1730 1695.79 1732.01 1694 1734.5 1694 1736.99 1694 1739 1695.79 1739 1698 1739 1700.21 1736.99 1702 1734.5 1702 1732.01 1702 1730 1700.21 1730 1698Z" fill="#FFFFFF" fill-rule="evenodd"/><path d="M1718 1698C1718 1695.79 1719.79 1694 1722 1694 1724.21 1694 1726 1695.79 1726 1698 1726 1700.21 1724.21 1702 1722 1702 1719.79 1702 1718 1700.21 1718 1698Z" fill="#FFFFFF" fill-rule="evenodd"/><path d="M1705 1698C1705 1695.79 1706.79 1694 1709 1694 1711.21 1694 1713 1695.79 1713 1698 1713 1700.21 1711.21 1702 1709 1702 1706.79 1702 1705 1700.21 1705 1698Z" fill="#FFFFFF" fill-rule="evenodd"/><path d="M1758 1719.5C1758 1717.01 1760.01 1715 1762.5 1715 1764.99 1715 1767 1717.01 1767 1719.5 1767 1721.99 1764.99 1724 1762.5 1724 1760.01 1724 1758 1721.99 1758 1719.5Z" fill="#FFFFFF" fill-rule="evenodd"/><path d="M1744 1719.5C1744 1717.01 1746.01 1715 1748.5 1715 1750.99 1715 1753 1717.01 1753 1719.5 1753 1721.99 1750.99 1724 1748.5 1724 1746.01 1724 1744 1721.99 1744 1719.5Z" fill="#FFFFFF" fill-rule="evenodd"/><path d="M1730 1719.5C1730 1717.01 1732.01 1715 1734.5 1715 1736.99 1715 1739 1717.01 1739 1719.5 1739 1721.99 1736.99 1724 1734.5 1724 1732.01 1724 1730 1721.99 1730 1719.5Z" fill="#FFFFFF" fill-rule="evenodd"/><path d="M1716 1719.5C1716 1717.01 1718.01 1715 1720.5 1715 1722.99 1715 1725 1717.01 1725 1719.5 1725 1721.99 1722.99 1724 1720.5 1724 1718.01 1724 1716 1721.99 1716 1719.5Z" fill="#FFFFFF" fill-rule="evenodd"/><path d="M1702 1719.5C1702 1717.01 1704.01 1715 1706.5 1715 1708.99 1715 1711 1717.01 1711 1719.5 1711 1721.99 1708.99 1724 1706.5 1724 1704.01 1724 1702 1721.99 1702 1719.5Z" fill="#FFFFFF" fill-rule="evenodd"/><path d="M1681 1719.5C1681 1717.01 1683.01 1715 1685.5 1715 1687.99 1715 1690 1717.01 1690 1719.5 1690 1721.99 1687.99 1724 1685.5 1724 1683.01 1724 1681 1721.99 1681 1719.5Z" fill="#FFFFFF" fill-rule="evenodd"/><path d="M1667 1719.5C1667 1717.01 1669.01 1715 1671.5 1715 1673.99 1715 1676 1717.01 1676 1719.5 1676 1721.99 1673.99 1724 1671.5 1724 1669.01 1724 1667 1721.99 1667 1719.5Z" fill="#FFFFFF" fill-rule="evenodd"/><path d="M1652 1719.5C1652 1717.01 1654.24 1715 1657 1715 1659.76 1715 1662 1717.01 1662 1719.5 1662 1721.99 1659.76 1724 1657 1724 1654.24 1724 1652 1721.99 1652 1719.5Z" fill="#FFFFFF" fill-rule="evenodd"/><path d="M1807 1719.5C1807 1717.01 1809.24 1715 1812 1715 1814.76 1715 1817 1717.01 1817 1719.5 1817 1721.99 1814.76 1724 1812 1724 1809.24 1724 1807 1721.99 1807 1719.5Z" fill="#FFFFFF" fill-rule="evenodd"/><path d="M1793 1719.5C1793 1717.01 1795.01 1715 1797.5 1715 1799.99 1715 1802 1717.01 1802 1719.5 1802 1721.99 1799.99 1724 1797.5 1724 1795.01 1724 1793 1721.99 1793 1719.5Z" fill="#FFFFFF" fill-rule="evenodd"/><path d="M1779 1719.5C1779 1717.01 1781.01 1715 1783.5 1715 1785.99 1715 1788 1717.01 1788 1719.5 1788 1721.99 1785.99 1724 1783.5 1724 1781.01 1724 1779 1721.99 1779 1719.5Z" fill="#FFFFFF" fill-rule="evenodd"/></g></svg>