<svg width="214" height="152" xmlns="http://www.w3.org/2000/svg" xmlns:xlink="http://www.w3.org/1999/xlink" xml:space="preserve" overflow="hidden"><g transform="translate(-502 -783)"><path d="M504.5 828.168C504.5 804.603 523.603 785.5 547.168 785.5L670.832 785.5C694.397 785.5 713.5 804.603 713.5 828.168L713.5 889.832C713.5 913.397 694.397 932.5 670.832 932.5L547.168 932.5C523.603 932.5 504.5 913.397 504.5 889.832Z" stroke="#000000" stroke-width="4.58333" stroke-miterlimit="8" fill-rule="evenodd"/><path d="M532 902 582.133 815 634.867 815 685 902Z" fill="#FFFFFF" fill-rule="evenodd"/><path d="M609.5 785.5 609.5 932.362" stroke="#000000" stroke-width="4.58333" stroke-miterlimit="8" fill="none" fill-rule="evenodd"/><path d="M604 823.5C604 821.015 606.015 819 608.5 819 610.985 819 613 821.015 613 823.5 613 825.985 610.985 828 608.5 828 606.015 828 604 825.985 604 823.5Z" fill-rule="evenodd"/><path d="M603 843.5C603 840.463 605.462 838 608.5 838 611.537 838 614 840.463 614 843.5 614 846.538 611.537 849 608.5 849 605.462 849 603 846.538 603 843.5Z" fill-rule="evenodd"/><path d="M602 866C602 862.686 604.91 860 608.5 860 612.09 860 615 862.686 615 866 615 869.314 612.09 872 608.5 872 604.91 872 602 869.314 602 866Z" fill-rule="evenodd"/><path d="M602 890C602 886.134 605.134 883 609 883 612.866 883 616 886.134 616 890 616 893.866 612.866 897 609 897 605.134 897 602 893.866 602 890Z" fill-rule="evenodd"/></g></svg>