<svg width="213" height="152" xmlns="http://www.w3.org/2000/svg" xmlns:xlink="http://www.w3.org/1999/xlink" xml:space="preserve" overflow="hidden"><g transform="translate(-947 -1364)"><path d="M949.5 1409.17C949.5 1385.6 968.603 1366.5 992.168 1366.5L1114.83 1366.5C1138.4 1366.5 1157.5 1385.6 1157.5 1409.17L1157.5 1470.83C1157.5 1494.4 1138.4 1513.5 1114.83 1513.5L992.168 1513.5C968.603 1513.5 949.5 1494.4 949.5 1470.83Z" stroke="#000000" stroke-width="4.58333" stroke-miterlimit="8" fill-rule="evenodd"/><path d="M976 1484 1026.13 1397 1078.87 1397 1129 1484Z" fill="#FFFFFF" fill-rule="evenodd"/><path d="M1053.5 1366.5 1053.5 1513.36" stroke="#000000" stroke-width="4.58333" stroke-miterlimit="8" fill="none" fill-rule="evenodd"/><path d="M0 2.99992C-3.8193e-16 1.34311 1.34311 -3.8193e-16 2.99992 -7.63859e-16 4.65673-1.52772e-15 5.99984 1.34311 5.99984 2.99992 5.99984 4.65673 4.65673 5.99984 2.99992 5.99984 1.34311 5.99984-1.90965e-15 4.65673 0 2.99992Z" fill="#FFFFFF" fill-rule="evenodd" transform="matrix(-1 0 0 1 1029 1387)"/><path d="M0 2.99992C-3.81953e-16 1.34311 1.34319 -3.8193e-16 3.0001 -7.63859e-16 4.65701-1.52772e-15 6.0002 1.34311 6.0002 2.99992 6.0002 4.65673 4.65701 5.99984 3.0001 5.99984 1.34319 5.99984-1.90976e-15 4.65673 0 2.99992Z" fill="#FFFFFF" fill-rule="evenodd" transform="matrix(-1 0 0 1 1061 1387)"/><path d="M0 2.99992C-3.81953e-16 1.34311 1.34319 -3.8193e-16 3.0001 -7.63859e-16 4.65701-1.52772e-15 6.0002 1.34311 6.0002 2.99992 6.0002 4.65673 4.65701 5.99984 3.0001 5.99984 1.34319 5.99984-1.90976e-15 4.65673 0 2.99992Z" fill="#FFFFFF" fill-rule="evenodd" transform="matrix(-1 0 0 1 1072 1387)"/><path d="M0 2.99992C-3.8193e-16 1.34311 1.34311 -3.8193e-16 2.99992 -7.63859e-16 4.65673-1.52772e-15 5.99984 1.34311 5.99984 2.99992 5.99984 4.65673 4.65673 5.99984 2.99992 5.99984 1.34311 5.99984-1.90965e-15 4.65673 0 2.99992Z" fill="#FFFFFF" fill-rule="evenodd" transform="matrix(-1 0 0 1 1040 1387)"/><path d="M0 2.99992C-3.18294e-16 1.34311 1.11932 -3.8193e-16 2.50008 -7.63859e-16 3.88084-1.52772e-15 5.00016 1.34311 5.00016 2.99992 5.00016 4.65673 3.88084 5.99984 2.50008 5.99984 1.11932 5.99984-1.59147e-15 4.65673 0 2.99992Z" fill="#FFFFFF" fill-rule="evenodd" transform="matrix(-1 0 0 1 1050 1387)"/><path d="M0 2.99992C-3.81953e-16 1.34311 1.34319 -3.8193e-16 3.0001 -7.63859e-16 4.65701-1.52772e-15 6.0002 1.34311 6.0002 2.99992 6.0002 4.65673 4.65701 5.99984 3.0001 5.99984 1.34319 5.99984-1.90976e-15 4.65673 0 2.99992Z" fill="#FFFFFF" fill-rule="evenodd" transform="matrix(-1 0 0 1 1083 1387)"/><path d="M0 3.99995C-4.45611e-16 1.79084 1.56705 -5.09247e-16 3.50011-1.01849e-15 5.43317-2.03699e-15 7.00023 1.79084 7.00023 3.99995 7.00023 6.20906 5.43317 7.9999 3.50011 7.9999 1.56705 7.9999-2.22806e-15 6.20906 0 3.99995Z" fill-rule="evenodd" transform="matrix(-1 0 0 1 1072 1456)"/><path d="M0 3.99995C-5.09247e-16 1.79084 1.79084 -5.09247e-16 3.99995-1.01849e-15 6.20906-2.03699e-15 7.9999 1.79084 7.9999 3.99995 7.9999 6.20906 6.20906 7.9999 3.99995 7.9999 1.79084 7.9999-2.54624e-15 6.20906 0 3.99995Z" fill-rule="evenodd" transform="matrix(-1 0 0 1 1057 1456)"/><path d="M0 3.99995C-5.09247e-16 1.79084 1.79084 -5.09247e-16 3.99995-1.01849e-15 6.20906-2.03699e-15 7.9999 1.79084 7.9999 3.99995 7.9999 6.20906 6.20906 7.9999 3.99995 7.9999 1.79084 7.9999-2.54624e-15 6.20906 0 3.99995Z" fill-rule="evenodd" transform="matrix(-1 0 0 1 1041 1456)"/><path d="M0 3.99995C-4.45611e-16 1.79084 1.56705 -5.09247e-16 3.50011-1.01849e-15 5.43317-2.03699e-15 7.00023 1.79084 7.00023 3.99995 7.00023 6.20906 5.43317 7.9999 3.50011 7.9999 1.56705 7.9999-2.22806e-15 6.20906 0 3.99995Z" fill-rule="evenodd" transform="matrix(-1 0 0 1 1025 1456)"/><path d="M0 3.49993C-4.45588e-16 1.56697 1.56697 -4.45588e-16 3.49993 -8.91177e-16 5.43289-1.78235e-15 6.99987 1.56697 6.99987 3.49993 6.99987 5.43289 5.43289 6.99987 3.49993 6.99987 1.56697 6.99987-2.22794e-15 5.43289 0 3.49993Z" fill-rule="evenodd" transform="matrix(-1 0 0 1 1088 1456)"/><path d="M0 2.99992C-3.81953e-16 1.34311 1.34319 -3.8193e-16 3.0001 -7.63859e-16 4.65701-1.52772e-15 6.0002 1.34311 6.0002 2.99992 6.0002 4.65673 4.65701 5.99984 3.0001 5.99984 1.34319 5.99984-1.90976e-15 4.65673 0 2.99992Z" fill-rule="evenodd" transform="matrix(-1 0 0 1 1069 1444)"/><path d="M0 2.99992C-3.8193e-16 1.34311 1.34311 -3.8193e-16 2.99992 -7.63859e-16 4.65673-1.52772e-15 5.99984 1.34311 5.99984 2.99992 5.99984 4.65673 4.65673 5.99984 2.99992 5.99984 1.34311 5.99984-1.90965e-15 4.65673 0 2.99992Z" fill-rule="evenodd" transform="matrix(-1 0 0 1 1056 1444)"/><path d="M0 2.99992C-3.8193e-16 1.34311 1.34311 -3.8193e-16 2.99992 -7.63859e-16 4.65673-1.52772e-15 5.99984 1.34311 5.99984 2.99992 5.99984 4.65673 4.65673 5.99984 2.99992 5.99984 1.34311 5.99984-1.90965e-15 4.65673 0 2.99992Z" fill-rule="evenodd" transform="matrix(-1 0 0 1 1043 1444)"/><path d="M0 2.99992C-3.8193e-16 1.34311 1.34311 -3.8193e-16 2.99992 -7.63859e-16 4.65673-1.52772e-15 5.99984 1.34311 5.99984 2.99992 5.99984 4.65673 4.65673 5.99984 2.99992 5.99984 1.34311 5.99984-1.90965e-15 4.65673 0 2.99992Z" fill-rule="evenodd" transform="matrix(-1 0 0 1 1031 1444)"/><path d="M0 2.4999C-3.18294e-16 1.11924 1.11932 -3.18271e-16 2.50008 -6.36542e-16 3.88084-1.27308e-15 5.00016 1.11924 5.00016 2.4999 5.00016 3.88056 3.88084 4.9998 2.50008 4.9998 1.11932 4.9998-1.59147e-15 3.88056 0 2.4999Z" fill-rule="evenodd" transform="matrix(-1 0 0 1 1081 1444)"/><path d="M0 4.50015C-5.72906e-16 2.01478 2.0147 -5.72929e-16 4.49997-1.14586e-15 6.98523-2.29172e-15 8.99993 2.01478 8.99993 4.50015 8.99993 6.98551 6.98523 9.0003 4.49997 9.0003 2.0147 9.0003-2.86453e-15 6.98551 0 4.50015Z" fill-rule="evenodd" transform="matrix(-1 0 0 1 1077 1470)"/><path d="M0 4.50015C-5.09247e-16 2.01478 1.79084 -5.72929e-16 3.99995-1.14586e-15 6.20906-2.29172e-15 7.9999 2.01478 7.9999 4.50015 7.9999 6.98551 6.20906 9.0003 3.99995 9.0003 1.79084 9.0003-2.54624e-15 6.98551 0 4.50015Z" fill-rule="evenodd" transform="matrix(-1 0 0 1 1057 1470)"/><path d="M0 4.50015C-5.72929e-16 2.01478 2.01478 -5.72929e-16 4.50015-1.14586e-15 6.98551-2.29172e-15 9.0003 2.01478 9.0003 4.50015 9.0003 6.98551 6.98551 9.0003 4.50015 9.0003 2.01478 9.0003-2.86464e-15 6.98551 0 4.50015Z" fill-rule="evenodd" transform="matrix(-1 0 0 1 1038 1470)"/><path d="M0 4.50015C-5.72906e-16 2.01478 2.0147 -5.72929e-16 4.49997-1.14586e-15 6.98523-2.29172e-15 8.99993 2.01478 8.99993 4.50015 8.99993 6.98551 6.98523 9.0003 4.49997 9.0003 2.0147 9.0003-2.86453e-15 6.98551 0 4.50015Z" fill-rule="evenodd" transform="matrix(-1 0 0 1 1019 1470)"/><path d="M0 4.50015C-5.72906e-16 2.01478 2.0147 -5.72929e-16 4.49997-1.14586e-15 6.98523-2.29172e-15 8.99993 2.01478 8.99993 4.50015 8.99993 6.98551 6.98523 9.0003 4.49997 9.0003 2.0147 9.0003-2.86453e-15 6.98551 0 4.50015Z" fill-rule="evenodd" transform="matrix(-1 0 0 1 1096 1470)"/><path d="M0 1.99989C-2.54612e-16 0.895379 0.895379 -2.54612e-16 1.99989 -5.09224e-16 3.10439-1.01845e-15 3.99977 0.895379 3.99977 1.99989 3.99977 3.10439 3.10439 3.99977 1.99989 3.99977 0.895379 3.99977-1.27306e-15 3.10439 0 1.99989Z" fill-rule="evenodd" transform="matrix(-1 0 0 1 1064 1433)"/><path d="M0 1.99989C-2.54635e-16 0.895379 0.89546 -2.54612e-16 2.00007 -5.09224e-16 3.10467-1.01845e-15 4.00013 0.895379 4.00013 1.99989 4.00013 3.10439 3.10467 3.99977 2.00007 3.99977 0.89546 3.99977-1.27318e-15 3.10439 0 1.99989Z" fill-rule="evenodd" transform="matrix(-1 0 0 1 1055 1433)"/><path d="M0 1.99989C-2.54635e-16 0.895379 0.89546 -2.54612e-16 2.00007 -5.09224e-16 3.10467-1.01845e-15 4.00013 0.895379 4.00013 1.99989 4.00013 3.10439 3.10467 3.99977 2.00007 3.99977 0.89546 3.99977-1.27318e-15 3.10439 0 1.99989Z" fill-rule="evenodd" transform="matrix(-1 0 0 1 1046 1433)"/><path d="M0 1.99989C-2.54635e-16 0.895379 0.89546 -2.54612e-16 2.00007 -5.09224e-16 3.10467-1.01845e-15 4.00013 0.895379 4.00013 1.99989 4.00013 3.10439 3.10467 3.99977 2.00007 3.99977 0.89546 3.99977-1.27318e-15 3.10439 0 1.99989Z" fill-rule="evenodd" transform="matrix(-1 0 0 1 1037 1433)"/><path d="M0 1.99989C-2.54612e-16 0.895379 0.895379 -2.54612e-16 1.99989 -5.09224e-16 3.10439-1.01845e-15 3.99977 0.895379 3.99977 1.99989 3.99977 3.10439 3.10439 3.99977 1.99989 3.99977 0.895379 3.99977-1.27306e-15 3.10439 0 1.99989Z" fill-rule="evenodd" transform="matrix(-1 0 0 1 1073 1433)"/><path d="M0 1.99989C-2.54635e-16 0.895379 0.89546 -2.54612e-16 2.00007 -5.09224e-16 3.10467-1.01845e-15 4.00013 0.895379 4.00013 1.99989 4.00013 3.10439 3.10467 3.99977 2.00007 3.99977 0.89546 3.99977-1.27318e-15 3.10439 0 1.99989Z" fill-rule="evenodd" transform="matrix(-1 0 0 1 1100 1433)"/><path d="M0 1.99989C-2.54635e-16 0.895379 0.89546 -2.54612e-16 2.00007 -5.09224e-16 3.10467-1.01845e-15 4.00013 0.895379 4.00013 1.99989 4.00013 3.10439 3.10467 3.99977 2.00007 3.99977 0.89546 3.99977-1.27318e-15 3.10439 0 1.99989Z" fill-rule="evenodd" transform="matrix(-1 0 0 1 1091 1433)"/><path d="M0 1.99989C-2.54635e-16 0.895379 0.89546 -2.54612e-16 2.00007 -5.09224e-16 3.10467-1.01845e-15 4.00013 0.895379 4.00013 1.99989 4.00013 3.10439 3.10467 3.99977 2.00007 3.99977 0.89546 3.99977-1.27318e-15 3.10439 0 1.99989Z" fill-rule="evenodd" transform="matrix(-1 0 0 1 1082 1433)"/><path d="M0 1.99989C-2.54612e-16 0.895379 0.895379 -2.54612e-16 1.99989 -5.09224e-16 3.10439-1.01845e-15 3.99977 0.895379 3.99977 1.99989 3.99977 3.10439 3.10439 3.99977 1.99989 3.99977 0.895379 3.99977-1.27306e-15 3.10439 0 1.99989Z" fill-rule="evenodd" transform="matrix(-1 0 0 1 1019 1433)"/><path d="M0 1.99989C-2.54612e-16 0.895379 0.895379 -2.54612e-16 1.99989 -5.09224e-16 3.10439-1.01845e-15 3.99977 0.895379 3.99977 1.99989 3.99977 3.10439 3.10439 3.99977 1.99989 3.99977 0.895379 3.99977-1.27306e-15 3.10439 0 1.99989Z" fill-rule="evenodd" transform="matrix(-1 0 0 1 1010 1433)"/><path d="M0 1.99989C-2.54635e-16 0.895379 0.89546 -2.54612e-16 2.00007 -5.09224e-16 3.10467-1.01845e-15 4.00013 0.895379 4.00013 1.99989 4.00013 3.10439 3.10467 3.99977 2.00007 3.99977 0.89546 3.99977-1.27318e-15 3.10439 0 1.99989Z" fill-rule="evenodd" transform="matrix(-1 0 0 1 1028 1433)"/></g></svg>