<svg width="213" height="152" xmlns="http://www.w3.org/2000/svg" xmlns:xlink="http://www.w3.org/1999/xlink" xml:space="preserve" overflow="hidden"><g transform="translate(-947 -783)"><path d="M949.5 828.168C949.5 804.603 968.603 785.5 992.168 785.5L1114.83 785.5C1138.4 785.5 1157.5 804.603 1157.5 828.168L1157.5 889.832C1157.5 913.397 1138.4 932.5 1114.83 932.5L992.168 932.5C968.603 932.5 949.5 913.397 949.5 889.832Z" stroke="#000000" stroke-width="4.58333" stroke-miterlimit="8" fill-rule="evenodd"/><path d="M976 902 1026.13 815 1078.87 815 1129 902Z" fill="#FFFFFF" fill-rule="evenodd"/><path d="M1053.5 785.5 1053.5 932.362" stroke="#000000" stroke-width="4.58333" stroke-miterlimit="8" fill="none" fill-rule="evenodd"/><path d="M1003 833.5C1003 831.567 1004.57 830 1006.5 830 1008.43 830 1010 831.567 1010 833.5 1010 835.433 1008.43 837 1006.5 837 1004.57 837 1003 835.433 1003 833.5Z" fill="#FFFFFF" fill-rule="evenodd"/><path d="M990 850.5C990 848.015 992.015 846 994.5 846 996.985 846 999 848.015 999 850.5 999 852.985 996.985 855 994.5 855 992.015 855 990 852.985 990 850.5Z" fill="#FFFFFF" fill-rule="evenodd"/><path d="M973 872C973 868.686 975.686 866 979 866 982.314 866 985 868.686 985 872 985 875.314 982.314 878 979 878 975.686 878 973 875.314 973 872Z" fill="#FFFFFF" fill-rule="evenodd"/><path d="M958 894.5C958 890.91 960.91 888 964.5 888 968.09 888 971 890.91 971 894.5 971 898.09 968.09 901 964.5 901 960.91 901 958 898.09 958 894.5Z" fill="#FFFFFF" fill-rule="evenodd"/><path d="M1014 817C1014 815.896 1014.9 815 1016 815 1017.1 815 1018 815.896 1018 817 1018 818.105 1017.1 819 1016 819 1014.9 819 1014 818.105 1014 817Z" fill="#FFFFFF" fill-rule="evenodd"/><path d="M0 2.99992C-3.81953e-16 1.34311 1.34319 -3.8193e-16 3.0001 -7.63859e-16 4.65701-1.52772e-15 6.0002 1.34311 6.0002 2.99992 6.0002 4.65673 4.65701 5.99984 3.0001 5.99984 1.34319 5.99984-1.90976e-15 4.65673 0 2.99992Z" fill="#FFFFFF" fill-rule="evenodd" transform="matrix(-1 0 0 1 1103 830)"/><path d="M0 4.49997C-5.72929e-16 2.0147 2.01478 -5.72906e-16 4.50015-1.14581e-15 6.98551-2.29162e-15 9.0003 2.0147 9.0003 4.49997 9.0003 6.98523 6.98551 8.99993 4.50015 8.99993 2.01478 8.99993-2.86464e-15 6.98523 0 4.49997Z" fill="#FFFFFF" fill-rule="evenodd" transform="matrix(-1 0 0 1 1116 846)"/><path d="M0 6.00002C-7.63882e-16 2.6863 2.6863 -7.63882e-16 6.00002-1.52776e-15 9.31373-3.05553e-15 12 2.6863 12 6.00002 12 9.31373 9.31373 12 6.00002 12 2.6863 12-3.81941e-15 9.31373 0 6.00002Z" fill="#FFFFFF" fill-rule="evenodd" transform="matrix(-1 0 0 1 1133 866)"/><path d="M0 6.50003C-8.912e-16 2.91016 3.13403 -8.27541e-16 7.00005-1.65508e-15 10.8661-3.31016e-15 14.0001 2.91016 14.0001 6.50003 14.0001 10.0899 10.8661 13.0001 7.00005 13.0001 3.13403 13.0001-4.456e-15 10.0899 0 6.50003Z" fill="#FFFFFF" fill-rule="evenodd" transform="matrix(-1 0 0 1 1149 888)"/><path d="M0 2.00007C-2.54635e-16 0.89546 0.89546 -2.54635e-16 2.00007 -5.0927e-16 3.10467-1.01854e-15 4.00013 0.89546 4.00013 2.00007 4.00013 3.10467 3.10467 4.00013 2.00007 4.00013 0.89546 4.00013-1.27318e-15 3.10467 0 2.00007Z" fill="#FFFFFF" fill-rule="evenodd" transform="matrix(-1 0 0 1 1092 815)"/></g></svg>