<svg width="214" height="152" xmlns="http://www.w3.org/2000/svg" xmlns:xlink="http://www.w3.org/1999/xlink" xml:space="preserve" overflow="hidden"><g transform="translate(-1390 -1070)"><path d="M1392.5 1115.17C1392.5 1091.6 1411.6 1072.5 1435.17 1072.5L1558.83 1072.5C1582.4 1072.5 1601.5 1091.6 1601.5 1115.17L1601.5 1176.83C1601.5 1200.4 1582.4 1219.5 1558.83 1219.5L1435.17 1219.5C1411.6 1219.5 1392.5 1200.4 1392.5 1176.83Z" stroke="#000000" stroke-width="4.58333" stroke-miterlimit="8" fill-rule="evenodd"/><path d="M1420 1198 1470.13 1111 1522.87 1111 1573 1198Z" fill="#FFFFFF" fill-rule="evenodd"/><path d="M1496.5 1072.5 1496.5 1219.36" stroke="#000000" stroke-width="4.58333" stroke-miterlimit="8" fill="none" fill-rule="evenodd"/><path d="M0 4.49997C-5.09247e-16 2.0147 1.79084 -5.72906e-16 3.99995-1.14581e-15 6.20906-2.29162e-15 7.9999 2.0147 7.9999 4.49997 7.9999 6.98523 6.20906 8.99993 3.99995 8.99993 1.79084 8.99993-2.54624e-15 6.98523 0 4.49997Z" fill="#FFFFFF" fill-rule="evenodd" transform="matrix(-1 0 0 1 1473 1097)"/><path d="M0 4.49997C-5.72906e-16 2.0147 2.0147 -5.72906e-16 4.49997-1.14581e-15 6.98523-2.29162e-15 8.99993 2.0147 8.99993 4.49997 8.99993 6.98523 6.98523 8.99993 4.49997 8.99993 2.0147 8.99993-2.86453e-15 6.98523 0 4.49997Z" fill="#FFFFFF" fill-rule="evenodd" transform="matrix(-1 0 0 1 1506 1097)"/><path d="M0 4.49997C-5.09247e-16 2.0147 1.79084 -5.72906e-16 3.99995-1.14581e-15 6.20906-2.29162e-15 7.9999 2.0147 7.9999 4.49997 7.9999 6.98523 6.20906 8.99993 3.99995 8.99993 1.79084 8.99993-2.54624e-15 6.98523 0 4.49997Z" fill="#FFFFFF" fill-rule="evenodd" transform="matrix(-1 0 0 1 1516 1097)"/><path d="M0 4.49997C-5.09247e-16 2.0147 1.79084 -5.72906e-16 3.99995-1.14581e-15 6.20906-2.29162e-15 7.9999 2.0147 7.9999 4.49997 7.9999 6.98523 6.20906 8.99993 3.99995 8.99993 1.79084 8.99993-2.54624e-15 6.98523 0 4.49997Z" fill="#FFFFFF" fill-rule="evenodd" transform="matrix(-1 0 0 1 1484 1097)"/><path d="M0 4.49997C-5.09247e-16 2.0147 1.79084 -5.72906e-16 3.99995-1.14581e-15 6.20906-2.29162e-15 7.9999 2.0147 7.9999 4.49997 7.9999 6.98523 6.20906 8.99993 3.99995 8.99993 1.79084 8.99993-2.54624e-15 6.98523 0 4.49997Z" fill="#FFFFFF" fill-rule="evenodd" transform="matrix(-1 0 0 1 1495 1097)"/><path d="M0 4.49997C-5.09247e-16 2.0147 1.79084 -5.72906e-16 3.99995-1.14581e-15 6.20906-2.29162e-15 7.9999 2.0147 7.9999 4.49997 7.9999 6.98523 6.20906 8.99993 3.99995 8.99993 1.79084 8.99993-2.54624e-15 6.98523 0 4.49997Z" fill="#FFFFFF" fill-rule="evenodd" transform="matrix(-1 0 0 1 1527 1097)"/></g></svg>