<svg width="214" height="152" xmlns="http://www.w3.org/2000/svg" xmlns:xlink="http://www.w3.org/1999/xlink" xml:space="preserve" overflow="hidden"><g transform="translate(-2716 -1076)"><path d="M2718.5 1121.17C2718.5 1097.6 2737.6 1078.5 2761.17 1078.5L2884.83 1078.5C2908.4 1078.5 2927.5 1097.6 2927.5 1121.17L2927.5 1182.83C2927.5 1206.4 2908.4 1225.5 2884.83 1225.5L2761.17 1225.5C2737.6 1225.5 2718.5 1206.4 2718.5 1182.83Z" stroke="#000000" stroke-width="4.58333" stroke-miterlimit="8" fill-rule="evenodd"/><path d="M2746 1139 2770.78 1096 2874.22 1096 2899 1139Z" fill="#FFFFFF" fill-rule="evenodd"/><path d="M2823.5 1096.5 2823.5 1139.92" stroke="#000000" stroke-width="4.58333" stroke-miterlimit="8" fill="none" fill-rule="evenodd"/><path d="M2806.93 1171.94 2819.07 1166.75 2818.36 1153.58 2823.55 1165.71 2836.73 1165.01 2824.59 1170.19 2825.29 1183.37 2820.11 1171.23Z" fill="#FFFFFF" fill-rule="evenodd"/><path d="M2890.04 1154.63 2898.62 1150.97 2898.12 1141.65 2901.79 1150.23 2911.11 1149.73 2902.53 1153.4 2903.02 1162.71 2899.36 1154.14Z" fill="#FFFFFF" fill-rule="evenodd"/><path d="M2804.23 1208.89 2818.98 1202.58 2818.13 1186.56 2824.43 1201.31 2840.46 1200.46 2825.7 1206.76 2826.56 1222.79 2820.25 1208.03Z" fill="#FFFFFF" fill-rule="evenodd"/><path d="M2734.46 1154.02 2743.04 1150.35 2742.54 1141.03 2746.21 1149.61 2755.52 1149.12 2746.94 1152.78 2747.44 1162.1 2743.78 1153.52Z" fill="#FFFFFF" fill-rule="evenodd"/></g></svg>