<svg width="213" height="152" xmlns="http://www.w3.org/2000/svg" xmlns:xlink="http://www.w3.org/1999/xlink" xml:space="preserve" overflow="hidden"><g transform="translate(-500 -1075)"><path d="M502.5 1120.17C502.5 1096.6 521.603 1077.5 545.168 1077.5L667.832 1077.5C691.397 1077.5 710.5 1096.6 710.5 1120.17L710.5 1181.83C710.5 1205.4 691.397 1224.5 667.832 1224.5L545.168 1224.5C521.603 1224.5 502.5 1205.4 502.5 1181.83Z" stroke="#000000" stroke-width="4.58333" stroke-miterlimit="8" fill-rule="evenodd"/><path d="M530 1194 580.133 1107 632.867 1107 683 1194Z" fill="#FFFFFF" fill-rule="evenodd"/><path d="M606.5 1077.5 606.5 1224.36" stroke="#000000" stroke-width="4.58333" stroke-miterlimit="8" fill="none" fill-rule="evenodd"/><path d="M591 1169.5C591 1167.01 593.238 1165 596 1165 598.761 1165 601 1167.01 601 1169.5 601 1171.99 598.761 1174 596 1174 593.238 1174 591 1171.99 591 1169.5Z" fill-rule="evenodd"/><path d="M577 1169.5C577 1167.01 579.015 1165 581.5 1165 583.985 1165 586 1167.01 586 1169.5 586 1171.99 583.985 1174 581.5 1174 579.015 1174 577 1171.99 577 1169.5Z" fill-rule="evenodd"/><path d="M562 1169.5C562 1167.01 564.015 1165 566.5 1165 568.985 1165 571 1167.01 571 1169.5 571 1171.99 568.985 1174 566.5 1174 564.015 1174 562 1171.99 562 1169.5Z" fill-rule="evenodd"/><path d="M547 1169.5C547 1167.01 549.015 1165 551.5 1165 553.985 1165 556 1167.01 556 1169.5 556 1171.99 553.985 1174 551.5 1174 549.015 1174 547 1171.99 547 1169.5Z" fill-rule="evenodd"/><path d="M656 1169.5C656 1167.01 658.238 1165 661 1165 663.761 1165 666 1167.01 666 1169.5 666 1171.99 663.761 1174 661 1174 658.238 1174 656 1171.99 656 1169.5Z" fill-rule="evenodd"/><path d="M642 1169.5C642 1167.01 644.015 1165 646.5 1165 648.985 1165 651 1167.01 651 1169.5 651 1171.99 648.985 1174 646.5 1174 644.015 1174 642 1171.99 642 1169.5Z" fill-rule="evenodd"/><path d="M627 1169.5C627 1167.01 629.015 1165 631.5 1165 633.985 1165 636 1167.01 636 1169.5 636 1171.99 633.985 1174 631.5 1174 629.015 1174 627 1171.99 627 1169.5Z" fill-rule="evenodd"/><path d="M612 1169.5C612 1167.01 614.238 1165 617 1165 619.761 1165 622 1167.01 622 1169.5 622 1171.99 619.761 1174 617 1174 614.238 1174 612 1171.99 612 1169.5Z" fill-rule="evenodd"/></g></svg>