<svg width="213" height="152" xmlns="http://www.w3.org/2000/svg" xmlns:xlink="http://www.w3.org/1999/xlink" xml:space="preserve" overflow="hidden"><g transform="translate(-521 -1589)"><path d="M523.5 1634.17C523.5 1610.6 542.603 1591.5 566.168 1591.5L688.832 1591.5C712.397 1591.5 731.5 1610.6 731.5 1634.17L731.5 1695.83C731.5 1719.4 712.397 1738.5 688.832 1738.5L566.168 1738.5C542.603 1738.5 523.5 1719.4 523.5 1695.83Z" stroke="#000000" stroke-width="4.58333" stroke-miterlimit="8" fill-rule="evenodd"/><path d="M550 1708 600.133 1621 652.867 1621 703 1708Z" fill="#FFFFFF" fill-rule="evenodd"/><path d="M627.5 1591.5 627.5 1738.36" stroke="#000000" stroke-width="4.58333" stroke-miterlimit="8" fill="none" fill-rule="evenodd"/><path d="M612 1696.5C612 1694.01 614.015 1692 616.5 1692 618.985 1692 621 1694.01 621 1696.5 621 1698.99 618.985 1701 616.5 1701 614.015 1701 612 1698.99 612 1696.5Z" fill-rule="evenodd"/><path d="M598 1696.5C598 1694.01 600.015 1692 602.5 1692 604.985 1692 607 1694.01 607 1696.5 607 1698.99 604.985 1701 602.5 1701 600.015 1701 598 1698.99 598 1696.5Z" fill-rule="evenodd"/><path d="M583 1696.5C583 1694.01 585.015 1692 587.5 1692 589.985 1692 592 1694.01 592 1696.5 592 1698.99 589.985 1701 587.5 1701 585.015 1701 583 1698.99 583 1696.5Z" fill-rule="evenodd"/><path d="M568 1696.5C568 1694.01 570.015 1692 572.5 1692 574.985 1692 577 1694.01 577 1696.5 577 1698.99 574.985 1701 572.5 1701 570.015 1701 568 1698.99 568 1696.5Z" fill-rule="evenodd"/><path d="M677 1696.5C677 1694.01 679.015 1692 681.5 1692 683.985 1692 686 1694.01 686 1696.5 686 1698.99 683.985 1701 681.5 1701 679.015 1701 677 1698.99 677 1696.5Z" fill-rule="evenodd"/><path d="M663 1696.5C663 1694.01 665.015 1692 667.5 1692 669.985 1692 672 1694.01 672 1696.5 672 1698.99 669.985 1701 667.5 1701 665.015 1701 663 1698.99 663 1696.5Z" fill-rule="evenodd"/><path d="M648 1696.5C648 1694.01 650.015 1692 652.5 1692 654.985 1692 657 1694.01 657 1696.5 657 1698.99 654.985 1701 652.5 1701 650.015 1701 648 1698.99 648 1696.5Z" fill-rule="evenodd"/><path d="M633 1696.5C633 1694.01 635.015 1692 637.5 1692 639.985 1692 642 1694.01 642 1696.5 642 1698.99 639.985 1701 637.5 1701 635.015 1701 633 1698.99 633 1696.5Z" fill-rule="evenodd"/><path d="M651 1627C651 1625.9 651.895 1625 653 1625 654.104 1625 655 1625.9 655 1627 655 1628.1 654.104 1629 653 1629 651.895 1629 651 1628.1 651 1627Z" fill-rule="evenodd"/><path d="M644 1627C644 1625.9 645.119 1625 646.5 1625 647.881 1625 649 1625.9 649 1627 649 1628.1 647.881 1629 646.5 1629 645.119 1629 644 1628.1 644 1627Z" fill-rule="evenodd"/><path d="M638 1627C638 1625.9 638.895 1625 640 1625 641.105 1625 642 1625.9 642 1627 642 1628.1 641.105 1629 640 1629 638.895 1629 638 1628.1 638 1627Z" fill-rule="evenodd"/><path d="M631 1627C631 1625.9 631.896 1625 633 1625 634.104 1625 635 1625.9 635 1627 635 1628.1 634.104 1629 633 1629 631.896 1629 631 1628.1 631 1627Z" fill-rule="evenodd"/><path d="M619 1627C619 1625.9 619.896 1625 621 1625 622.104 1625 623 1625.9 623 1627 623 1628.1 622.104 1629 621 1629 619.896 1629 619 1628.1 619 1627Z" fill-rule="evenodd"/><path d="M613 1627C613 1625.9 613.895 1625 615 1625 616.105 1625 617 1625.9 617 1627 617 1628.1 616.105 1629 615 1629 613.895 1629 613 1628.1 613 1627Z" fill-rule="evenodd"/><path d="M606 1627C606 1625.9 606.896 1625 608 1625 609.105 1625 610 1625.9 610 1627 610 1628.1 609.105 1629 608 1629 606.896 1629 606 1628.1 606 1627Z" fill-rule="evenodd"/><path d="M600 1627C600 1625.9 600.895 1625 602 1625 603.104 1625 604 1625.9 604 1627 604 1628.1 603.104 1629 602 1629 600.895 1629 600 1628.1 600 1627Z" fill-rule="evenodd"/></g></svg>