<svg width="213" height="152" xmlns="http://www.w3.org/2000/svg" xmlns:xlink="http://www.w3.org/1999/xlink" xml:space="preserve" overflow="hidden"><g transform="translate(-949 -1559)"><path d="M951.5 1604.17C951.5 1580.6 970.603 1561.5 994.168 1561.5L1116.83 1561.5C1140.4 1561.5 1159.5 1580.6 1159.5 1604.17L1159.5 1665.83C1159.5 1689.4 1140.4 1708.5 1116.83 1708.5L994.168 1708.5C970.603 1708.5 951.5 1689.4 951.5 1665.83Z" stroke="#000000" stroke-width="4.58333" stroke-miterlimit="8" fill-rule="evenodd"/><path d="M979 1679 1029.13 1592 1081.87 1592 1132 1679Z" fill="#FFFFFF" fill-rule="evenodd"/><path d="M1055.5 1561.5 1055.5 1708.36" stroke="#000000" stroke-width="4.58333" stroke-miterlimit="8" fill="none" fill-rule="evenodd"/><path d="M0 3.49993C-5.09247e-16 1.56697 1.79084 -4.45588e-16 3.99995 -8.91177e-16 6.20906-1.78235e-15 7.9999 1.56697 7.9999 3.49993 7.9999 5.43289 6.20906 6.99987 3.99995 6.99987 1.79084 6.99987-2.54624e-15 5.43289 0 3.49993Z" fill-rule="evenodd" transform="matrix(-1 0 0 1 1075 1651)"/><path d="M0 3.49993C-4.45611e-16 1.56697 1.56705 -4.45588e-16 3.50011 -8.91177e-16 5.43317-1.78235e-15 7.00023 1.56697 7.00023 3.49993 7.00023 5.43289 5.43317 6.99987 3.50011 6.99987 1.56705 6.99987-2.22806e-15 5.43289 0 3.49993Z" fill-rule="evenodd" transform="matrix(-1 0 0 1 1059 1651)"/><path d="M0 3.49993C-4.45588e-16 1.56697 1.56697 -4.45588e-16 3.49993 -8.91177e-16 5.43289-1.78235e-15 6.99987 1.56697 6.99987 3.49993 6.99987 5.43289 5.43289 6.99987 3.49993 6.99987 1.56697 6.99987-2.22794e-15 5.43289 0 3.49993Z" fill-rule="evenodd" transform="matrix(-1 0 0 1 1043 1651)"/><path d="M0 3.49993C-4.45611e-16 1.56697 1.56705 -4.45588e-16 3.50011 -8.91177e-16 5.43317-1.78235e-15 7.00023 1.56697 7.00023 3.49993 7.00023 5.43289 5.43317 6.99987 3.50011 6.99987 1.56705 6.99987-2.22806e-15 5.43289 0 3.49993Z" fill-rule="evenodd" transform="matrix(-1 0 0 1 1027 1651)"/><path d="M0 3.49993C-5.09247e-16 1.56697 1.79084 -4.45588e-16 3.99995 -8.91177e-16 6.20906-1.78235e-15 7.9999 1.56697 7.9999 3.49993 7.9999 5.43289 6.20906 6.99987 3.99995 6.99987 1.79084 6.99987-2.54624e-15 5.43289 0 3.49993Z" fill-rule="evenodd" transform="matrix(-1 0 0 1 1091 1651)"/><path d="M0 2.50008C-3.81953e-16 1.11932 1.34319 -3.18294e-16 3.0001 -6.36588e-16 4.65701-1.27318e-15 6.0002 1.11932 6.0002 2.50008 6.0002 3.88084 4.65701 5.00016 3.0001 5.00016 1.34319 5.00016-1.90976e-15 3.88084 0 2.50008Z" fill-rule="evenodd" transform="matrix(-1 0 0 1 1071 1639)"/><path d="M0 2.50008C-3.81953e-16 1.11932 1.34319 -3.18294e-16 3.0001 -6.36588e-16 4.65701-1.27318e-15 6.0002 1.11932 6.0002 2.50008 6.0002 3.88084 4.65701 5.00016 3.0001 5.00016 1.34319 5.00016-1.90976e-15 3.88084 0 2.50008Z" fill-rule="evenodd" transform="matrix(-1 0 0 1 1058 1639)"/><path d="M0 2.50008C-3.81953e-16 1.11932 1.34319 -3.18294e-16 3.0001 -6.36588e-16 4.65701-1.27318e-15 6.0002 1.11932 6.0002 2.50008 6.0002 3.88084 4.65701 5.00016 3.0001 5.00016 1.34319 5.00016-1.90976e-15 3.88084 0 2.50008Z" fill-rule="evenodd" transform="matrix(-1 0 0 1 1046 1639)"/><path d="M0 2.50008C-3.8193e-16 1.11932 1.34311 -3.18294e-16 2.99992 -6.36588e-16 4.65673-1.27318e-15 5.99984 1.11932 5.99984 2.50008 5.99984 3.88084 4.65673 5.00016 2.99992 5.00016 1.34311 5.00016-1.90965e-15 3.88084 0 2.50008Z" fill-rule="evenodd" transform="matrix(-1 0 0 1 1033 1639)"/><path d="M0 2.50008C-3.8193e-16 1.11932 1.34311 -3.18294e-16 2.99992 -6.36588e-16 4.65673-1.27318e-15 5.99984 1.11932 5.99984 2.50008 5.99984 3.88084 4.65673 5.00016 2.99992 5.00016 1.34311 5.00016-1.90965e-15 3.88084 0 2.50008Z" fill-rule="evenodd" transform="matrix(-1 0 0 1 1084 1639)"/><path d="M0 4.49997C-5.72906e-16 2.0147 2.0147 -5.72906e-16 4.49997-1.14581e-15 6.98523-2.29162e-15 8.99993 2.0147 8.99993 4.49997 8.99993 6.98523 6.98523 8.99993 4.49997 8.99993 2.0147 8.99993-2.86453e-15 6.98523 0 4.49997Z" fill-rule="evenodd" transform="matrix(-1 0 0 1 1079 1665)"/><path d="M0 4.49997C-5.72929e-16 2.0147 2.01478 -5.72906e-16 4.50015-1.14581e-15 6.98551-2.29162e-15 9.0003 2.0147 9.0003 4.49997 9.0003 6.98523 6.98551 8.99993 4.50015 8.99993 2.01478 8.99993-2.86464e-15 6.98523 0 4.49997Z" fill-rule="evenodd" transform="matrix(-1 0 0 1 1060 1665)"/><path d="M0 4.49997C-5.72906e-16 2.0147 2.0147 -5.72906e-16 4.49997-1.14581e-15 6.98523-2.29162e-15 8.99993 2.0147 8.99993 4.49997 8.99993 6.98523 6.98523 8.99993 4.49997 8.99993 2.0147 8.99993-2.86453e-15 6.98523 0 4.49997Z" fill-rule="evenodd" transform="matrix(-1 0 0 1 1040 1665)"/><path d="M0 4.49997C-5.72906e-16 2.0147 2.0147 -5.72906e-16 4.49997-1.14581e-15 6.98523-2.29162e-15 8.99993 2.0147 8.99993 4.49997 8.99993 6.98523 6.98523 8.99993 4.49997 8.99993 2.0147 8.99993-2.86453e-15 6.98523 0 4.49997Z" fill-rule="evenodd" transform="matrix(-1 0 0 1 1021 1665)"/><path d="M0 4.49997C-5.72906e-16 2.0147 2.0147 -5.72906e-16 4.49997-1.14581e-15 6.98523-2.29162e-15 8.99993 2.0147 8.99993 4.49997 8.99993 6.98523 6.98523 8.99993 4.49997 8.99993 2.0147 8.99993-2.86453e-15 6.98523 0 4.49997Z" fill-rule="evenodd" transform="matrix(-1 0 0 1 1099 1665)"/><path d="M0 2.00007C-2.54635e-16 0.89546 0.89546 -2.54635e-16 2.00007 -5.0927e-16 3.10467-1.01854e-15 4.00013 0.89546 4.00013 2.00007 4.00013 3.10467 3.10467 4.00013 2.00007 4.00013 0.89546 4.00013-1.27318e-15 3.10467 0 2.00007Z" fill-rule="evenodd" transform="matrix(-1 0 0 1 1066 1628)"/><path d="M0 2.00007C-2.54635e-16 0.89546 0.89546 -2.54635e-16 2.00007 -5.0927e-16 3.10467-1.01854e-15 4.00013 0.89546 4.00013 2.00007 4.00013 3.10467 3.10467 4.00013 2.00007 4.00013 0.89546 4.00013-1.27318e-15 3.10467 0 2.00007Z" fill-rule="evenodd" transform="matrix(-1 0 0 1 1057 1628)"/><path d="M0 2.00007C-2.54635e-16 0.89546 0.89546 -2.54635e-16 2.00007 -5.0927e-16 3.10467-1.01854e-15 4.00013 0.89546 4.00013 2.00007 4.00013 3.10467 3.10467 4.00013 2.00007 4.00013 0.89546 4.00013-1.27318e-15 3.10467 0 2.00007Z" fill-rule="evenodd" transform="matrix(-1 0 0 1 1048 1628)"/><path d="M0 2.00007C-3.18271e-16 0.89546 1.11924 -2.54635e-16 2.4999 -5.0927e-16 3.88056-1.01854e-15 4.9998 0.89546 4.9998 2.00007 4.9998 3.10467 3.88056 4.00013 2.4999 4.00013 1.11924 4.00013-1.59135e-15 3.10467 0 2.00007Z" fill-rule="evenodd" transform="matrix(-1 0 0 1 1040 1628)"/><path d="M0 2.00007C-2.54612e-16 0.89546 0.895379 -2.54635e-16 1.99989 -5.0927e-16 3.10439-1.01854e-15 3.99977 0.89546 3.99977 2.00007 3.99977 3.10467 3.10439 4.00013 1.99989 4.00013 0.895379 4.00013-1.27306e-15 3.10467 0 2.00007Z" fill-rule="evenodd" transform="matrix(-1 0 0 1 1075 1628)"/><path d="M0 2.00007C-2.54635e-16 0.89546 0.89546 -2.54635e-16 2.00007 -5.0927e-16 3.10467-1.01854e-15 4.00013 0.89546 4.00013 2.00007 4.00013 3.10467 3.10467 4.00013 2.00007 4.00013 0.89546 4.00013-1.27318e-15 3.10467 0 2.00007Z" fill-rule="evenodd" transform="matrix(-1 0 0 1 1102 1628)"/><path d="M0 2.00007C-2.54635e-16 0.89546 0.89546 -2.54635e-16 2.00007 -5.0927e-16 3.10467-1.01854e-15 4.00013 0.89546 4.00013 2.00007 4.00013 3.10467 3.10467 4.00013 2.00007 4.00013 0.89546 4.00013-1.27318e-15 3.10467 0 2.00007Z" fill-rule="evenodd" transform="matrix(-1 0 0 1 1093 1628)"/><path d="M0 2.00007C-2.54612e-16 0.89546 0.895379 -2.54635e-16 1.99989 -5.0927e-16 3.10439-1.01854e-15 3.99977 0.89546 3.99977 2.00007 3.99977 3.10467 3.10439 4.00013 1.99989 4.00013 0.895379 4.00013-1.27306e-15 3.10467 0 2.00007Z" fill-rule="evenodd" transform="matrix(-1 0 0 1 1084 1628)"/><path d="M0 2.00007C-3.18271e-16 0.89546 1.11924 -2.54635e-16 2.4999 -5.0927e-16 3.88056-1.01854e-15 4.9998 0.89546 4.9998 2.00007 4.9998 3.10467 3.88056 4.00013 2.4999 4.00013 1.11924 4.00013-1.59135e-15 3.10467 0 2.00007Z" fill-rule="evenodd" transform="matrix(-1 0 0 1 1022 1628)"/><path d="M0 2.00007C-3.18294e-16 0.89546 1.11932 -2.54635e-16 2.50008 -5.0927e-16 3.88084-1.01854e-15 5.00016 0.89546 5.00016 2.00007 5.00016 3.10467 3.88084 4.00013 2.50008 4.00013 1.11932 4.00013-1.59147e-15 3.10467 0 2.00007Z" fill-rule="evenodd" transform="matrix(-1 0 0 1 1013 1628)"/><path d="M0 2.00007C-3.18271e-16 0.89546 1.11924 -2.54635e-16 2.4999 -5.0927e-16 3.88056-1.01854e-15 4.9998 0.89546 4.9998 2.00007 4.9998 3.10467 3.88056 4.00013 2.4999 4.00013 1.11924 4.00013-1.59135e-15 3.10467 0 2.00007Z" fill-rule="evenodd" transform="matrix(-1 0 0 1 1031 1628)"/></g></svg>