<svg width="213" height="152" xmlns="http://www.w3.org/2000/svg" xmlns:xlink="http://www.w3.org/1999/xlink" xml:space="preserve" overflow="hidden"><g transform="translate(-947 -1079)"><path d="M949.5 1124.17C949.5 1100.6 968.603 1081.5 992.168 1081.5L1114.83 1081.5C1138.4 1081.5 1157.5 1100.6 1157.5 1124.17L1157.5 1185.83C1157.5 1209.4 1138.4 1228.5 1114.83 1228.5L992.168 1228.5C968.603 1228.5 949.5 1209.4 949.5 1185.83Z" stroke="#000000" stroke-width="4.58333" stroke-miterlimit="8" fill-rule="evenodd"/><path d="M976 1192 1026.13 1105 1078.87 1105 1129 1192Z" fill="#FFFFFF" fill-rule="evenodd"/><path d="M1053.5 1081.5 1053.5 1228.36" stroke="#000000" stroke-width="4.58333" stroke-miterlimit="8" fill="none" fill-rule="evenodd"/><path d="M1003 1123C1003 1121.34 1004.57 1120 1006.5 1120 1008.43 1120 1010 1121.34 1010 1123 1010 1124.66 1008.43 1126 1006.5 1126 1004.57 1126 1003 1124.66 1003 1123Z" fill="#FFFFFF" fill-rule="evenodd"/><path d="M990 1140.5C990 1138.01 992.015 1136 994.5 1136 996.985 1136 999 1138.01 999 1140.5 999 1142.99 996.985 1145 994.5 1145 992.015 1145 990 1142.99 990 1140.5Z" fill="#FFFFFF" fill-rule="evenodd"/><path d="M973 1161.5C973 1158.46 975.686 1156 979 1156 982.314 1156 985 1158.46 985 1161.5 985 1164.54 982.314 1167 979 1167 975.686 1167 973 1164.54 973 1161.5Z" fill="#FFFFFF" fill-rule="evenodd"/><path d="M958 1184.5C958 1180.91 960.91 1178 964.5 1178 968.09 1178 971 1180.91 971 1184.5 971 1188.09 968.09 1191 964.5 1191 960.91 1191 958 1188.09 958 1184.5Z" fill="#FFFFFF" fill-rule="evenodd"/><path d="M1014 1107C1014 1105.9 1014.9 1105 1016 1105 1017.1 1105 1018 1105.9 1018 1107 1018 1108.1 1017.1 1109 1016 1109 1014.9 1109 1014 1108.1 1014 1107Z" fill="#FFFFFF" fill-rule="evenodd"/><path d="M0 3.50011C-3.81953e-16 1.56705 1.34319 -4.45611e-16 3.0001 -8.91223e-16 4.65701-1.78245e-15 6.0002 1.56705 6.0002 3.50011 6.0002 5.43317 4.65701 7.00023 3.0001 7.00023 1.34319 7.00023-1.90976e-15 5.43317 0 3.50011Z" fill="#FFFFFF" fill-rule="evenodd" transform="matrix(-1 0 0 1 1103 1119)"/><path d="M0 4.49997C-5.72929e-16 2.0147 2.01478 -5.72906e-16 4.50015-1.14581e-15 6.98551-2.29162e-15 9.0003 2.0147 9.0003 4.49997 9.0003 6.98523 6.98551 8.99993 4.50015 8.99993 2.01478 8.99993-2.86464e-15 6.98523 0 4.49997Z" fill="#FFFFFF" fill-rule="evenodd" transform="matrix(-1 0 0 1 1116 1136)"/><path d="M0 5.5C-7.63882e-16 2.46243 2.6863 -7.00223e-16 6.00002-1.40045e-15 9.31373-2.80089e-15 12 2.46243 12 5.5 12 8.53757 9.31373 11 6.00002 11 2.6863 11-3.81941e-15 8.53757 0 5.5Z" fill="#FFFFFF" fill-rule="evenodd" transform="matrix(-1 0 0 1 1133 1156)"/><path d="M0 6.50003C-8.912e-16 2.91016 3.13403 -8.27541e-16 7.00005-1.65508e-15 10.8661-3.31016e-15 14.0001 2.91016 14.0001 6.50003 14.0001 10.0899 10.8661 13.0001 7.00005 13.0001 3.13403 13.0001-4.456e-15 10.0899 0 6.50003Z" fill="#FFFFFF" fill-rule="evenodd" transform="matrix(-1 0 0 1 1149 1178)"/><path d="M0 1.99989C-2.54635e-16 0.895379 0.89546 -2.54612e-16 2.00007 -5.09224e-16 3.10467-1.01845e-15 4.00013 0.895379 4.00013 1.99989 4.00013 3.10439 3.10467 3.99977 2.00007 3.99977 0.89546 3.99977-1.27318e-15 3.10439 0 1.99989Z" fill="#FFFFFF" fill-rule="evenodd" transform="matrix(-1 0 0 1 1092 1105)"/><path d="M1038 1204.5C1038 1202.01 1040.01 1200 1042.5 1200 1044.99 1200 1047 1202.01 1047 1204.5 1047 1206.99 1044.99 1209 1042.5 1209 1040.01 1209 1038 1206.99 1038 1204.5Z" fill="#FFFFFF" fill-rule="evenodd"/><path d="M1017 1204.5C1017 1202.01 1019.01 1200 1021.5 1200 1023.99 1200 1026 1202.01 1026 1204.5 1026 1206.99 1023.99 1209 1021.5 1209 1019.01 1209 1017 1206.99 1017 1204.5Z" fill="#FFFFFF" fill-rule="evenodd"/><path d="M997 1204.5C997 1202.01 999.015 1200 1001.5 1200 1003.99 1200 1006 1202.01 1006 1204.5 1006 1206.99 1003.99 1209 1001.5 1209 999.015 1209 997 1206.99 997 1204.5Z" fill="#FFFFFF" fill-rule="evenodd"/><path d="M976 1204.5C976 1202.01 978.015 1200 980.5 1200 982.985 1200 985 1202.01 985 1204.5 985 1206.99 982.985 1209 980.5 1209 978.015 1209 976 1206.99 976 1204.5Z" fill="#FFFFFF" fill-rule="evenodd"/><path d="M1120 1204.5C1120 1202.01 1122.24 1200 1125 1200 1127.76 1200 1130 1202.01 1130 1204.5 1130 1206.99 1127.76 1209 1125 1209 1122.24 1209 1120 1206.99 1120 1204.5Z" fill="#FFFFFF" fill-rule="evenodd"/><path d="M1100 1204.5C1100 1202.01 1102.01 1200 1104.5 1200 1106.99 1200 1109 1202.01 1109 1204.5 1109 1206.99 1106.99 1209 1104.5 1209 1102.01 1209 1100 1206.99 1100 1204.5Z" fill="#FFFFFF" fill-rule="evenodd"/><path d="M1079 1204.5C1079 1202.01 1081.01 1200 1083.5 1200 1085.99 1200 1088 1202.01 1088 1204.5 1088 1206.99 1085.99 1209 1083.5 1209 1081.01 1209 1079 1206.99 1079 1204.5Z" fill="#FFFFFF" fill-rule="evenodd"/><path d="M1059 1204.5C1059 1202.01 1061.01 1200 1063.5 1200 1065.99 1200 1068 1202.01 1068 1204.5 1068 1206.99 1065.99 1209 1063.5 1209 1061.01 1209 1059 1206.99 1059 1204.5Z" fill="#FFFFFF" fill-rule="evenodd"/><path d="M0 2.00007C-2.54612e-16 0.89546 0.895379 -2.54635e-16 1.99989 -5.0927e-16 3.10439-1.01854e-15 3.99977 0.89546 3.99977 2.00007 3.99977 3.10467 3.10439 4.00013 1.99989 4.00013 0.895379 4.00013-1.27306e-15 3.10467 0 2.00007Z" fill="#FFFFFF" fill-rule="evenodd" transform="matrix(-1 0 0 1 1064 1096)"/><path d="M0 2.00007C-2.54635e-16 0.89546 0.89546 -2.54635e-16 2.00007 -5.0927e-16 3.10467-1.01854e-15 4.00013 0.89546 4.00013 2.00007 4.00013 3.10467 3.10467 4.00013 2.00007 4.00013 0.89546 4.00013-1.27318e-15 3.10467 0 2.00007Z" fill="#FFFFFF" fill-rule="evenodd" transform="matrix(-1 0 0 1 1081 1096)"/><path d="M0 2.00007C-2.54612e-16 0.89546 0.895379 -2.54635e-16 1.99989 -5.0927e-16 3.10439-1.01854e-15 3.99977 0.89546 3.99977 2.00007 3.99977 3.10467 3.10439 4.00013 1.99989 4.00013 0.895379 4.00013-1.27306e-15 3.10467 0 2.00007Z" fill="#FFFFFF" fill-rule="evenodd" transform="matrix(-1 0 0 1 1029 1096)"/><path d="M0 2.00007C-2.54635e-16 0.89546 0.89546 -2.54635e-16 2.00007 -5.0927e-16 3.10467-1.01854e-15 4.00013 0.89546 4.00013 2.00007 4.00013 3.10467 3.10467 4.00013 2.00007 4.00013 0.89546 4.00013-1.27318e-15 3.10467 0 2.00007Z" fill="#FFFFFF" fill-rule="evenodd" transform="matrix(-1 0 0 1 1046 1096)"/></g></svg>