<svg width="213" height="152" xmlns="http://www.w3.org/2000/svg" xmlns:xlink="http://www.w3.org/1999/xlink" xml:space="preserve" overflow="hidden"><g transform="translate(-2256 -1076)"><path d="M2258.5 1121.17C2258.5 1097.6 2277.6 1078.5 2301.17 1078.5L2423.83 1078.5C2447.4 1078.5 2466.5 1097.6 2466.5 1121.17L2466.5 1182.83C2466.5 1206.4 2447.4 1225.5 2423.83 1225.5L2301.17 1225.5C2277.6 1225.5 2258.5 1206.4 2258.5 1182.83Z" stroke="#000000" stroke-width="4.58333" stroke-miterlimit="8" fill-rule="evenodd"/><path d="M2294 1194 2344.13 1107 2396.87 1107 2447 1194Z" fill="#FFFFFF" fill-rule="evenodd"/><path d="M2371.5 1107.5 2371.5 1194.48" stroke="#000000" stroke-width="4.58333" stroke-miterlimit="8" fill="none" fill-rule="evenodd"/><path d="M0 3.99995C-5.72906e-16 1.79084 2.0147 -5.09247e-16 4.49997-1.01849e-15 6.98523-2.03699e-15 8.99993 1.79084 8.99993 3.99995 8.99993 6.20906 6.98523 7.9999 4.49997 7.9999 2.0147 7.9999-2.86453e-15 6.20906 0 3.99995Z" fill="#FFFFFF" fill-rule="evenodd" transform="matrix(-1 0 0 1 2312 1147)"/><path d="M0 3.99995C-5.09247e-16 1.79084 1.79084 -5.09247e-16 3.99995-1.01849e-15 6.20906-2.03699e-15 7.9999 1.79084 7.9999 3.99995 7.9999 6.20906 6.20906 7.9999 3.99995 7.9999 1.79084 7.9999-2.54624e-15 6.20906 0 3.99995Z" fill="#FFFFFF" fill-rule="evenodd" transform="matrix(-1 0 0 1 2299 1147)"/><path d="M0 3.99995C-5.09247e-16 1.79084 1.79084 -5.09247e-16 3.99995-1.01849e-15 6.20906-2.03699e-15 7.9999 1.79084 7.9999 3.99995 7.9999 6.20906 6.20906 7.9999 3.99995 7.9999 1.79084 7.9999-2.54624e-15 6.20906 0 3.99995Z" fill="#FFFFFF" fill-rule="evenodd" transform="matrix(-1 0 0 1 2286 1147)"/><path d="M0 3.99995C-5.72906e-16 1.79084 2.0147 -5.09247e-16 4.49997-1.01849e-15 6.98523-2.03699e-15 8.99993 1.79084 8.99993 3.99995 8.99993 6.20906 6.98523 7.9999 4.49997 7.9999 2.0147 7.9999-2.86453e-15 6.20906 0 3.99995Z" fill="#FFFFFF" fill-rule="evenodd" transform="matrix(-1 0 0 1 2274 1147)"/></g></svg>