<svg width="214" height="151" xmlns="http://www.w3.org/2000/svg" xmlns:xlink="http://www.w3.org/1999/xlink" xml:space="preserve" overflow="hidden"><g transform="translate(-490 -1371)"><path d="M492.5 1415.88C492.5 1392.47 511.473 1373.5 534.878 1373.5L659.122 1373.5C682.527 1373.5 701.5 1392.47 701.5 1415.88L701.5 1477.12C701.5 1500.53 682.527 1519.5 659.122 1519.5L534.878 1519.5C511.473 1519.5 492.5 1500.53 492.5 1477.12Z" stroke="#000000" stroke-width="4.58333" stroke-miterlimit="8" fill-rule="evenodd"/><path d="M520 1483 570.133 1396 622.867 1396 673 1483Z" fill="#FFFFFF" fill-rule="evenodd"/><path d="M547 1414.5C547 1412.57 548.343 1411 550 1411 551.657 1411 553 1412.57 553 1414.5 553 1416.43 551.657 1418 550 1418 548.343 1418 547 1416.43 547 1414.5Z" fill="#FFFFFF" fill-rule="evenodd"/><path d="M534 1431.5C534 1429.01 536.015 1427 538.5 1427 540.985 1427 543 1429.01 543 1431.5 543 1433.99 540.985 1436 538.5 1436 536.015 1436 534 1433.99 534 1431.5Z" fill="#FFFFFF" fill-rule="evenodd"/><path d="M517 1453C517 1449.69 519.686 1447 523 1447 526.314 1447 529 1449.69 529 1453 529 1456.31 526.314 1459 523 1459 519.686 1459 517 1456.31 517 1453Z" fill="#FFFFFF" fill-rule="evenodd"/><path d="M501 1475.5C501 1471.91 504.134 1469 508 1469 511.866 1469 515 1471.91 515 1475.5 515 1479.09 511.866 1482 508 1482 504.134 1482 501 1479.09 501 1475.5Z" fill="#FFFFFF" fill-rule="evenodd"/><path d="M558 1398C558 1396.9 558.895 1396 560 1396 561.105 1396 562 1396.9 562 1398 562 1399.1 561.105 1400 560 1400 558.895 1400 558 1399.1 558 1398Z" fill="#FFFFFF" fill-rule="evenodd"/><path d="M0 2.99992C-4.45588e-16 1.34311 1.56697 -3.8193e-16 3.49993 -7.63859e-16 5.43289-1.52772e-15 6.99987 1.34311 6.99987 2.99992 6.99987 4.65673 5.43289 5.99984 3.49993 5.99984 1.56697 5.99984-2.22794e-15 4.65673 0 2.99992Z" fill="#FFFFFF" fill-rule="evenodd" transform="matrix(-1 0 0 1 647 1411)"/><path d="M0 4.49997C-5.72906e-16 2.0147 2.0147 -5.72906e-16 4.49997-1.14581e-15 6.98523-2.29162e-15 8.99993 2.0147 8.99993 4.49997 8.99993 6.98523 6.98523 8.99993 4.49997 8.99993 2.0147 8.99993-2.86453e-15 6.98523 0 4.49997Z" fill="#FFFFFF" fill-rule="evenodd" transform="matrix(-1 0 0 1 660 1427)"/><path d="M0 6.00002C-7.63859e-16 2.6863 2.68622 -7.63882e-16 5.99984-1.52776e-15 9.31345-3.05553e-15 11.9997 2.6863 11.9997 6.00002 11.9997 9.31373 9.31345 12 5.99984 12 2.68622 12-3.8193e-15 9.31373 0 6.00002Z" fill="#FFFFFF" fill-rule="evenodd" transform="matrix(-1 0 0 1 677 1447)"/><path d="M0 6.50003C-8.27541e-16 2.91016 2.91016 -8.27541e-16 6.50003-1.65508e-15 10.0899-3.31016e-15 13.0001 2.91016 13.0001 6.50003 13.0001 10.0899 10.0899 13.0001 6.50003 13.0001 2.91016 13.0001-4.1377e-15 10.0899 0 6.50003Z" fill="#FFFFFF" fill-rule="evenodd" transform="matrix(-1 0 0 1 692 1469)"/><path d="M0 2.00007C-2.54612e-16 0.89546 0.895379 -2.54635e-16 1.99989 -5.0927e-16 3.10439-1.01854e-15 3.99977 0.89546 3.99977 2.00007 3.99977 3.10467 3.10439 4.00013 1.99989 4.00013 0.895379 4.00013-1.27306e-15 3.10467 0 2.00007Z" fill="#FFFFFF" fill-rule="evenodd" transform="matrix(-1 0 0 1 636 1396)"/><path d="M581 1495.5C581 1493.01 583.239 1491 586 1491 588.761 1491 591 1493.01 591 1495.5 591 1497.99 588.761 1500 586 1500 583.239 1500 581 1497.99 581 1495.5Z" fill="#FFFFFF" fill-rule="evenodd"/><path d="M561 1495.5C561 1493.01 563.015 1491 565.5 1491 567.985 1491 570 1493.01 570 1495.5 570 1497.99 567.985 1500 565.5 1500 563.015 1500 561 1497.99 561 1495.5Z" fill="#FFFFFF" fill-rule="evenodd"/><path d="M540 1495.5C540 1493.01 542.015 1491 544.5 1491 546.985 1491 549 1493.01 549 1495.5 549 1497.99 546.985 1500 544.5 1500 542.015 1500 540 1497.99 540 1495.5Z" fill="#FFFFFF" fill-rule="evenodd"/><path d="M519 1495.5C519 1493.01 521.239 1491 524 1491 526.761 1491 529 1493.01 529 1495.5 529 1497.99 526.761 1500 524 1500 521.239 1500 519 1497.99 519 1495.5Z" fill="#FFFFFF" fill-rule="evenodd"/><path d="M664 1495.5C664 1493.01 666.015 1491 668.5 1491 670.985 1491 673 1493.01 673 1495.5 673 1497.99 670.985 1500 668.5 1500 666.015 1500 664 1497.99 664 1495.5Z" fill="#FFFFFF" fill-rule="evenodd"/><path d="M643 1495.5C643 1493.01 645.239 1491 648 1491 650.762 1491 653 1493.01 653 1495.5 653 1497.99 650.762 1500 648 1500 645.239 1500 643 1497.99 643 1495.5Z" fill="#FFFFFF" fill-rule="evenodd"/><path d="M623 1495.5C623 1493.01 625.015 1491 627.5 1491 629.985 1491 632 1493.01 632 1495.5 632 1497.99 629.985 1500 627.5 1500 625.015 1500 623 1497.99 623 1495.5Z" fill="#FFFFFF" fill-rule="evenodd"/><path d="M602 1495.5C602 1493.01 604.015 1491 606.5 1491 608.985 1491 611 1493.01 611 1495.5 611 1497.99 608.985 1500 606.5 1500 604.015 1500 602 1497.99 602 1495.5Z" fill="#FFFFFF" fill-rule="evenodd"/><path d="M0 2.00007C-2.54635e-16 0.89546 0.89546 -2.54635e-16 2.00007 -5.0927e-16 3.10467-1.01854e-15 4.00013 0.89546 4.00013 2.00007 4.00013 3.10467 3.10467 4.00013 2.00007 4.00013 0.89546 4.00013-1.27318e-15 3.10467 0 2.00007Z" fill="#FFFFFF" fill-rule="evenodd" transform="matrix(-1 0 0 1 607 1387)"/><path d="M0 2.00007C-2.54612e-16 0.89546 0.895379 -2.54635e-16 1.99989 -5.0927e-16 3.10439-1.01854e-15 3.99977 0.89546 3.99977 2.00007 3.99977 3.10467 3.10439 4.00013 1.99989 4.00013 0.895379 4.00013-1.27306e-15 3.10467 0 2.00007Z" fill="#FFFFFF" fill-rule="evenodd" transform="matrix(-1 0 0 1 625 1387)"/><path d="M0 2.00007C-2.54635e-16 0.89546 0.89546 -2.54635e-16 2.00007 -5.0927e-16 3.10467-1.01854e-15 4.00013 0.89546 4.00013 2.00007 4.00013 3.10467 3.10467 4.00013 2.00007 4.00013 0.89546 4.00013-1.27318e-15 3.10467 0 2.00007Z" fill="#FFFFFF" fill-rule="evenodd" transform="matrix(-1 0 0 1 572 1387)"/><path d="M0 2.00007C-2.54612e-16 0.89546 0.895379 -2.54635e-16 1.99989 -5.0927e-16 3.10439-1.01854e-15 3.99977 0.89546 3.99977 2.00007 3.99977 3.10467 3.10439 4.00013 1.99989 4.00013 0.895379 4.00013-1.27306e-15 3.10467 0 2.00007Z" fill="#FFFFFF" fill-rule="evenodd" transform="matrix(-1 0 0 1 590 1387)"/></g></svg>