<svg width="213" height="152" xmlns="http://www.w3.org/2000/svg" xmlns:xlink="http://www.w3.org/1999/xlink" xml:space="preserve" overflow="hidden"><g transform="translate(-2708 -1387)"><path d="M2710.5 1432.17C2710.5 1408.6 2729.6 1389.5 2753.17 1389.5L2875.83 1389.5C2899.4 1389.5 2918.5 1408.6 2918.5 1432.17L2918.5 1493.83C2918.5 1517.4 2899.4 1536.5 2875.83 1536.5L2753.17 1536.5C2729.6 1536.5 2710.5 1517.4 2710.5 1493.83Z" stroke="#000000" stroke-width="4.58333" stroke-miterlimit="8" fill-rule="evenodd"/><path d="M2737 1519 2780.79 1443 2846.21 1443 2890 1519Z" fill="#FFFFFF" fill-rule="evenodd"/><path d="M2813.5 1443.5 2813.5 1518.89" stroke="#000000" stroke-width="4.58333" stroke-miterlimit="8" fill="none" fill-rule="evenodd"/><path d="M2839.79 1438.78 2855.26 1432.17 2854.36 1415.38 2860.97 1430.85 2877.76 1429.95 2862.29 1436.56 2863.19 1453.35 2856.59 1437.88Z" fill="#FFFFFF" fill-rule="evenodd"/><path d="M2743.62 1439.61 2759.09 1433 2758.19 1416.21 2764.79 1431.68 2781.59 1430.78 2766.12 1437.39 2767.02 1454.18 2760.41 1438.71Z" fill="#FFFFFF" fill-rule="evenodd"/></g></svg>