<svg width="213" height="152" xmlns="http://www.w3.org/2000/svg" xmlns:xlink="http://www.w3.org/1999/xlink" xml:space="preserve" overflow="hidden"><g transform="translate(-2263 -778)"><path d="M2265.5 823.168C2265.5 799.603 2284.6 780.5 2308.17 780.5L2430.83 780.5C2454.4 780.5 2473.5 799.603 2473.5 823.168L2473.5 884.832C2473.5 908.397 2454.4 927.5 2430.83 927.5L2308.17 927.5C2284.6 927.5 2265.5 908.397 2265.5 884.832Z" stroke="#000000" stroke-width="4.58333" stroke-miterlimit="8" fill-rule="evenodd"/><path d="M2305 897 2355.13 810 2407.87 810 2458 897Z" fill="#FFFFFF" fill-rule="evenodd"/><path d="M2381.5 780.5 2381.5 927.362" stroke="#000000" stroke-width="4.58333" stroke-miterlimit="8" fill="none" fill-rule="evenodd"/><rect x="2281" y="810" width="42" height="27.0002" fill="#FFFFFF"/><path d="M2315 837 2315 845.8" stroke="#FFFFFF" stroke-width="10.3125" stroke-miterlimit="8" fill="none" fill-rule="evenodd"/><path d="M2289 837 2289 845.8" stroke="#FFFFFF" stroke-width="10.3125" stroke-miterlimit="8" fill="none" fill-rule="evenodd"/></g></svg>