<svg width="213" height="152" xmlns="http://www.w3.org/2000/svg" xmlns:xlink="http://www.w3.org/1999/xlink" xml:space="preserve" overflow="hidden"><g transform="translate(-1829 -782)"><path d="M1831.5 827.168C1831.5 803.603 1850.6 784.5 1874.17 784.5L1996.83 784.5C2020.4 784.5 2039.5 803.603 2039.5 827.168L2039.5 888.832C2039.5 912.397 2020.4 931.5 1996.83 931.5L1874.17 931.5C1850.6 931.5 1831.5 912.397 1831.5 888.832Z" stroke="#000000" stroke-width="4.58333" stroke-miterlimit="8" fill-rule="evenodd"/><path d="M1858 901 1908.13 814 1960.87 814 2011 901Z" fill="#FFFFFF" fill-rule="evenodd"/><path d="M1935.5 784.5 1935.5 931.362" stroke="#000000" stroke-width="4.58333" stroke-miterlimit="8" fill="none" fill-rule="evenodd"/><path d="M0 0 208.254 0.000360892" stroke="#000000" stroke-width="3.4375" stroke-miterlimit="8" stroke-dasharray="27.5 10.3125" fill="none" fill-rule="evenodd" transform="matrix(-1 0 0 1 2039.75 858.5)"/><path d="M0 0 208.254 0.000360892" stroke="#000000" stroke-width="4.58333" stroke-miterlimit="8" fill="none" fill-rule="evenodd" transform="matrix(-1 0 0 1 2039.75 865.5)"/><path d="M0 6.49985C-8.27541e-16 2.91008 2.91016 -8.27518e-16 6.50003-1.65504e-15 10.0899-3.31007e-15 13.0001 2.91008 13.0001 6.49985 13.0001 10.0896 10.0899 12.9997 6.50003 12.9997 2.91016 12.9997-4.1377e-15 10.0896 0 6.49985Z" fill="#FFFFFF" fill-rule="evenodd" transform="matrix(-1 0 0 1 2011 852)"/><path d="M0 6.49985C-8.27541e-16 2.91008 2.91016 -8.27518e-16 6.50003-1.65504e-15 10.0899-3.31007e-15 13.0001 2.91008 13.0001 6.49985 13.0001 10.0896 10.0899 12.9997 6.50003 12.9997 2.91016 12.9997-4.1377e-15 10.0896 0 6.49985Z" fill="#FFFFFF" fill-rule="evenodd" transform="matrix(-1 0 0 1 1871 852)"/></g></svg>