<svg width="213" height="152" xmlns="http://www.w3.org/2000/svg" xmlns:xlink="http://www.w3.org/1999/xlink" xml:space="preserve" overflow="hidden"><g transform="translate(-1836 -1059)"><path d="M1838.5 1104.17C1838.5 1080.6 1857.6 1061.5 1881.17 1061.5L2003.83 1061.5C2027.4 1061.5 2046.5 1080.6 2046.5 1104.17L2046.5 1165.83C2046.5 1189.4 2027.4 1208.5 2003.83 1208.5L1881.17 1208.5C1857.6 1208.5 1838.5 1189.4 1838.5 1165.83Z" stroke="#000000" stroke-width="4.58333" stroke-miterlimit="8" fill-rule="evenodd"/><path d="M1866 1178 1916.13 1091 1968.87 1091 2019 1178Z" fill="#FFFFFF" fill-rule="evenodd"/><path d="M1942.5 1061.5 1942.5 1208.36" stroke="#000000" stroke-width="4.58333" stroke-miterlimit="8" fill="none" fill-rule="evenodd"/><path d="M1927 1153.5C1927 1151.01 1929.01 1149 1931.5 1149 1933.99 1149 1936 1151.01 1936 1153.5 1936 1155.99 1933.99 1158 1931.5 1158 1929.01 1158 1927 1155.99 1927 1153.5Z" fill-rule="evenodd"/><path d="M1913 1153.5C1913 1151.01 1915.01 1149 1917.5 1149 1919.99 1149 1922 1151.01 1922 1153.5 1922 1155.99 1919.99 1158 1917.5 1158 1915.01 1158 1913 1155.99 1913 1153.5Z" fill-rule="evenodd"/><path d="M1898 1153.5C1898 1151.01 1900.01 1149 1902.5 1149 1904.99 1149 1907 1151.01 1907 1153.5 1907 1155.99 1904.99 1158 1902.5 1158 1900.01 1158 1898 1155.99 1898 1153.5Z" fill-rule="evenodd"/><path d="M1883 1153.5C1883 1151.01 1885.01 1149 1887.5 1149 1889.99 1149 1892 1151.01 1892 1153.5 1892 1155.99 1889.99 1158 1887.5 1158 1885.01 1158 1883 1155.99 1883 1153.5Z" fill-rule="evenodd"/><path d="M1992 1153.5C1992 1151.01 1994.24 1149 1997 1149 1999.76 1149 2002 1151.01 2002 1153.5 2002 1155.99 1999.76 1158 1997 1158 1994.24 1158 1992 1155.99 1992 1153.5Z" fill-rule="evenodd"/><path d="M1978 1153.5C1978 1151.01 1980.01 1149 1982.5 1149 1984.99 1149 1987 1151.01 1987 1153.5 1987 1155.99 1984.99 1158 1982.5 1158 1980.01 1158 1978 1155.99 1978 1153.5Z" fill-rule="evenodd"/><path d="M1963 1153.5C1963 1151.01 1965.01 1149 1967.5 1149 1969.99 1149 1972 1151.01 1972 1153.5 1972 1155.99 1969.99 1158 1967.5 1158 1965.01 1158 1963 1155.99 1963 1153.5Z" fill-rule="evenodd"/><path d="M1948 1153.5C1948 1151.01 1950.01 1149 1952.5 1149 1954.99 1149 1957 1151.01 1957 1153.5 1957 1155.99 1954.99 1158 1952.5 1158 1950.01 1158 1948 1155.99 1948 1153.5Z" fill-rule="evenodd"/><path d="M0 0 208.254 0.000360892" stroke="#000000" stroke-width="3.4375" stroke-miterlimit="8" stroke-dasharray="27.5 10.3125" fill="none" fill-rule="evenodd" transform="matrix(-1 0 0 1 2046.75 1135.5)"/><path d="M0 0 208.254 0.000360892" stroke="#000000" stroke-width="4.58333" stroke-miterlimit="8" fill="none" fill-rule="evenodd" transform="matrix(-1 0 0 1 2046.75 1142.5)"/></g></svg>