<svg width="214" height="152" xmlns="http://www.w3.org/2000/svg" xmlns:xlink="http://www.w3.org/1999/xlink" xml:space="preserve" overflow="hidden"><g transform="translate(-1398 -1360)"><path d="M1400.5 1405.17C1400.5 1381.6 1419.6 1362.5 1443.17 1362.5L1566.83 1362.5C1590.4 1362.5 1609.5 1381.6 1609.5 1405.17L1609.5 1466.83C1609.5 1490.4 1590.4 1509.5 1566.83 1509.5L1443.17 1509.5C1419.6 1509.5 1400.5 1490.4 1400.5 1466.83Z" stroke="#000000" stroke-width="4.58333" stroke-miterlimit="8" fill-rule="evenodd"/><path d="M1428 1473 1478.13 1386 1530.87 1386 1581 1473Z" fill="#FFFFFF" fill-rule="evenodd"/><path d="M1504.5 1362.5 1504.5 1509.36" stroke="#000000" stroke-width="4.58333" stroke-miterlimit="8" fill="none" fill-rule="evenodd"/><path d="M1489 1485.5C1489 1483.01 1491.24 1481 1494 1481 1496.76 1481 1499 1483.01 1499 1485.5 1499 1487.99 1496.76 1490 1494 1490 1491.24 1490 1489 1487.99 1489 1485.5Z" fill="#FFFFFF" fill-rule="evenodd"/><path d="M1469 1485.5C1469 1483.01 1471.01 1481 1473.5 1481 1475.99 1481 1478 1483.01 1478 1485.5 1478 1487.99 1475.99 1490 1473.5 1490 1471.01 1490 1469 1487.99 1469 1485.5Z" fill="#FFFFFF" fill-rule="evenodd"/><path d="M1448 1485.5C1448 1483.01 1450.01 1481 1452.5 1481 1454.99 1481 1457 1483.01 1457 1485.5 1457 1487.99 1454.99 1490 1452.5 1490 1450.01 1490 1448 1487.99 1448 1485.5Z" fill="#FFFFFF" fill-rule="evenodd"/><path d="M1427 1485.5C1427 1483.01 1429.24 1481 1432 1481 1434.76 1481 1437 1483.01 1437 1485.5 1437 1487.99 1434.76 1490 1432 1490 1429.24 1490 1427 1487.99 1427 1485.5Z" fill="#FFFFFF" fill-rule="evenodd"/><path d="M1572 1485.5C1572 1483.01 1574.01 1481 1576.5 1481 1578.99 1481 1581 1483.01 1581 1485.5 1581 1487.99 1578.99 1490 1576.5 1490 1574.01 1490 1572 1487.99 1572 1485.5Z" fill="#FFFFFF" fill-rule="evenodd"/><path d="M1551 1485.5C1551 1483.01 1553.24 1481 1556 1481 1558.76 1481 1561 1483.01 1561 1485.5 1561 1487.99 1558.76 1490 1556 1490 1553.24 1490 1551 1487.99 1551 1485.5Z" fill="#FFFFFF" fill-rule="evenodd"/><path d="M1531 1485.5C1531 1483.01 1533.01 1481 1535.5 1481 1537.99 1481 1540 1483.01 1540 1485.5 1540 1487.99 1537.99 1490 1535.5 1490 1533.01 1490 1531 1487.99 1531 1485.5Z" fill="#FFFFFF" fill-rule="evenodd"/><path d="M1510 1485.5C1510 1483.01 1512.01 1481 1514.5 1481 1516.99 1481 1519 1483.01 1519 1485.5 1519 1487.99 1516.99 1490 1514.5 1490 1512.01 1490 1510 1487.99 1510 1485.5Z" fill="#FFFFFF" fill-rule="evenodd"/><path d="M0 1.99989C-2.54612e-16 0.895379 0.895379 -2.54612e-16 1.99989 -5.09224e-16 3.10439-1.01845e-15 3.99977 0.895379 3.99977 1.99989 3.99977 3.10439 3.10439 3.99977 1.99989 3.99977 0.895379 3.99977-1.27306e-15 3.10439 0 1.99989Z" fill="#FFFFFF" fill-rule="evenodd" transform="matrix(-1 0 0 1 1515 1377)"/><path d="M0 1.99989C-2.54635e-16 0.895379 0.89546 -2.54612e-16 2.00007 -5.09224e-16 3.10467-1.01845e-15 4.00013 0.895379 4.00013 1.99989 4.00013 3.10439 3.10467 3.99977 2.00007 3.99977 0.89546 3.99977-1.27318e-15 3.10439 0 1.99989Z" fill="#FFFFFF" fill-rule="evenodd" transform="matrix(-1 0 0 1 1533 1377)"/><path d="M0 1.99989C-2.54612e-16 0.895379 0.895379 -2.54612e-16 1.99989 -5.09224e-16 3.10439-1.01845e-15 3.99977 0.895379 3.99977 1.99989 3.99977 3.10439 3.10439 3.99977 1.99989 3.99977 0.895379 3.99977-1.27306e-15 3.10439 0 1.99989Z" fill="#FFFFFF" fill-rule="evenodd" transform="matrix(-1 0 0 1 1480 1377)"/><path d="M0 1.99989C-2.54635e-16 0.895379 0.89546 -2.54612e-16 2.00007 -5.09224e-16 3.10467-1.01845e-15 4.00013 0.895379 4.00013 1.99989 4.00013 3.10439 3.10467 3.99977 2.00007 3.99977 0.89546 3.99977-1.27318e-15 3.10439 0 1.99989Z" fill="#FFFFFF" fill-rule="evenodd" transform="matrix(-1 0 0 1 1498 1377)"/></g></svg>