<svg width="213" height="152" xmlns="http://www.w3.org/2000/svg" xmlns:xlink="http://www.w3.org/1999/xlink" xml:space="preserve" overflow="hidden"><g transform="translate(-1391 -786)"><path d="M1393.5 830.878C1393.5 807.473 1412.47 788.5 1435.88 788.5L1559.12 788.5C1582.53 788.5 1601.5 807.473 1601.5 830.878L1601.5 892.122C1601.5 915.527 1582.53 934.5 1559.12 934.5L1435.88 934.5C1412.47 934.5 1393.5 915.527 1393.5 892.122Z" stroke="#000000" stroke-width="4.58333" stroke-miterlimit="8" fill-rule="evenodd"/><path d="M1421 892 1471.13 805 1523.87 805 1574 892Z" fill="#FFFFFF" fill-rule="evenodd"/><path d="M1497.5 788.5 1497.5 935.362" stroke="#000000" stroke-width="4.58333" stroke-miterlimit="8" fill="none" fill-rule="evenodd"/><path d="M1482 906.5C1482 904.015 1484.01 902 1486.5 902 1488.99 902 1491 904.015 1491 906.5 1491 908.985 1488.99 911 1486.5 911 1484.01 911 1482 908.985 1482 906.5Z" fill="#FFFFFF" fill-rule="evenodd"/><path d="M1468 906.5C1468 904.015 1470.01 902 1472.5 902 1474.99 902 1477 904.015 1477 906.5 1477 908.985 1474.99 911 1472.5 911 1470.01 911 1468 908.985 1468 906.5Z" fill="#FFFFFF" fill-rule="evenodd"/><path d="M1454 906.5C1454 904.015 1456.01 902 1458.5 902 1460.99 902 1463 904.015 1463 906.5 1463 908.985 1460.99 911 1458.5 911 1456.01 911 1454 908.985 1454 906.5Z" fill="#FFFFFF" fill-rule="evenodd"/><path d="M1440 906.5C1440 904.015 1442.01 902 1444.5 902 1446.99 902 1449 904.015 1449 906.5 1449 908.985 1446.99 911 1444.5 911 1442.01 911 1440 908.985 1440 906.5Z" fill="#FFFFFF" fill-rule="evenodd"/><path d="M1425 906.5C1425 904.015 1427.24 902 1430 902 1432.76 902 1435 904.015 1435 906.5 1435 908.985 1432.76 911 1430 911 1427.24 911 1425 908.985 1425 906.5Z" fill="#FFFFFF" fill-rule="evenodd"/><path d="M1411 906.5C1411 904.015 1413.24 902 1416 902 1418.76 902 1421 904.015 1421 906.5 1421 908.985 1418.76 911 1416 911 1413.24 911 1411 908.985 1411 906.5Z" fill="#FFFFFF" fill-rule="evenodd"/><path d="M1574 906.5C1574 904.015 1576.01 902 1578.5 902 1580.99 902 1583 904.015 1583 906.5 1583 908.985 1580.99 911 1578.5 911 1576.01 911 1574 908.985 1574 906.5Z" fill="#FFFFFF" fill-rule="evenodd"/><path d="M1560 906.5C1560 904.015 1562.01 902 1564.5 902 1566.99 902 1569 904.015 1569 906.5 1569 908.985 1566.99 911 1564.5 911 1562.01 911 1560 908.985 1560 906.5Z" fill="#FFFFFF" fill-rule="evenodd"/><path d="M1546 906.5C1546 904.015 1548.01 902 1550.5 902 1552.99 902 1555 904.015 1555 906.5 1555 908.985 1552.99 911 1550.5 911 1548.01 911 1546 908.985 1546 906.5Z" fill="#FFFFFF" fill-rule="evenodd"/><path d="M1532 906.5C1532 904.015 1534.01 902 1536.5 902 1538.99 902 1541 904.015 1541 906.5 1541 908.985 1538.99 911 1536.5 911 1534.01 911 1532 908.985 1532 906.5Z" fill="#FFFFFF" fill-rule="evenodd"/><path d="M1518 906.5C1518 904.015 1520.01 902 1522.5 902 1524.99 902 1527 904.015 1527 906.5 1527 908.985 1524.99 911 1522.5 911 1520.01 911 1518 908.985 1518 906.5Z" fill="#FFFFFF" fill-rule="evenodd"/><path d="M1504 906.5C1504 904.015 1506.01 902 1508.5 902 1510.99 902 1513 904.015 1513 906.5 1513 908.985 1510.99 911 1508.5 911 1506.01 911 1504 908.985 1504 906.5Z" fill="#FFFFFF" fill-rule="evenodd"/></g></svg>