<svg width="214" height="152" xmlns="http://www.w3.org/2000/svg" xmlns:xlink="http://www.w3.org/1999/xlink" xml:space="preserve" overflow="hidden"><g transform="translate(-1390 -1594)"><path d="M1392.5 1639.17C1392.5 1615.6 1411.6 1596.5 1435.17 1596.5L1558.83 1596.5C1582.4 1596.5 1601.5 1615.6 1601.5 1639.17L1601.5 1700.83C1601.5 1724.4 1582.4 1743.5 1558.83 1743.5L1435.17 1743.5C1411.6 1743.5 1392.5 1724.4 1392.5 1700.83Z" stroke="#000000" stroke-width="4.58333" stroke-miterlimit="8" fill-rule="evenodd"/><path d="M1457 1712 1476.81 1625 1514.19 1625 1534 1712Z" fill="#FFFFFF" fill-rule="evenodd"/><path d="M1496.5 1625.5 1496.5 1712.48" stroke="#000000" stroke-width="4.58333" stroke-miterlimit="8" fill="none" fill-rule="evenodd"/><path d="M0 3.99995C-5.09247e-16 1.79084 1.79084 -5.09247e-16 3.99995-1.01849e-15 6.20906-2.03699e-15 7.9999 1.79084 7.9999 3.99995 7.9999 6.20906 6.20906 7.9999 3.99995 7.9999 1.79084 7.9999-2.54624e-15 6.20906 0 3.99995Z" fill="#FFFFFF" fill-rule="evenodd" transform="matrix(-1 0 0 1 1449 1704)"/><path d="M0 3.99995C-5.09247e-16 1.79084 1.79084 -5.09247e-16 3.99995-1.01849e-15 6.20906-2.03699e-15 7.9999 1.79084 7.9999 3.99995 7.9999 6.20906 6.20906 7.9999 3.99995 7.9999 1.79084 7.9999-2.54624e-15 6.20906 0 3.99995Z" fill="#FFFFFF" fill-rule="evenodd" transform="matrix(-1 0 0 1 1436 1704)"/><path d="M0 3.99995C-5.72929e-16 1.79084 2.01478 -5.09247e-16 4.50015-1.01849e-15 6.98551-2.03699e-15 9.0003 1.79084 9.0003 3.99995 9.0003 6.20906 6.98551 7.9999 4.50015 7.9999 2.01478 7.9999-2.86464e-15 6.20906 0 3.99995Z" fill="#FFFFFF" fill-rule="evenodd" transform="matrix(-1 0 0 1 1424 1704)"/><path d="M0 3.99995C-5.0927e-16 1.79084 1.79092 -5.09247e-16 4.00013-1.01849e-15 6.20934-2.03699e-15 8.00026 1.79084 8.00026 3.99995 8.00026 6.20906 6.20934 7.9999 4.00013 7.9999 1.79092 7.9999-2.54635e-15 6.20906 0 3.99995Z" fill="#FFFFFF" fill-rule="evenodd" transform="matrix(-1 0 0 1 1411 1704)"/><path d="M0 3.99995C-5.72929e-16 1.79084 2.01478 -5.09247e-16 4.50015-1.01849e-15 6.98551-2.03699e-15 9.0003 1.79084 9.0003 3.99995 9.0003 6.20906 6.98551 7.9999 4.50015 7.9999 2.01478 7.9999-2.86464e-15 6.20906 0 3.99995Z" fill="#FFFFFF" fill-rule="evenodd" transform="matrix(-1 0 0 1 1588 1704)"/><path d="M0 3.99995C-5.09247e-16 1.79084 1.79084 -5.09247e-16 3.99995-1.01849e-15 6.20906-2.03699e-15 7.9999 1.79084 7.9999 3.99995 7.9999 6.20906 6.20906 7.9999 3.99995 7.9999 1.79084 7.9999-2.54624e-15 6.20906 0 3.99995Z" fill="#FFFFFF" fill-rule="evenodd" transform="matrix(-1 0 0 1 1575 1704)"/><path d="M0 3.99995C-5.09247e-16 1.79084 1.79084 -5.09247e-16 3.99995-1.01849e-15 6.20906-2.03699e-15 7.9999 1.79084 7.9999 3.99995 7.9999 6.20906 6.20906 7.9999 3.99995 7.9999 1.79084 7.9999-2.54624e-15 6.20906 0 3.99995Z" fill="#FFFFFF" fill-rule="evenodd" transform="matrix(-1 0 0 1 1562 1704)"/><path d="M0 3.99995C-5.72906e-16 1.79084 2.0147 -5.09247e-16 4.49997-1.01849e-15 6.98523-2.03699e-15 8.99993 1.79084 8.99993 3.99995 8.99993 6.20906 6.98523 7.9999 4.49997 7.9999 2.0147 7.9999-2.86453e-15 6.20906 0 3.99995Z" fill="#FFFFFF" fill-rule="evenodd" transform="matrix(-1 0 0 1 1550 1704)"/></g></svg>