<svg width="214" height="152" xmlns="http://www.w3.org/2000/svg" xmlns:xlink="http://www.w3.org/1999/xlink" xml:space="preserve" overflow="hidden"><g transform="translate(-2242 -1386)"><path d="M2244.5 1431.17C2244.5 1407.6 2263.6 1388.5 2287.17 1388.5L2410.83 1388.5C2434.4 1388.5 2453.5 1407.6 2453.5 1431.17L2453.5 1492.83C2453.5 1516.4 2434.4 1535.5 2410.83 1535.5L2287.17 1535.5C2263.6 1535.5 2244.5 1516.4 2244.5 1492.83Z" stroke="#000000" stroke-width="4.58333" stroke-miterlimit="8" fill-rule="evenodd"/><path d="M2326 1494 2361.15 1433 2398.85 1433 2434 1494Z" fill="#FFFFFF" fill-rule="evenodd"/><path d="M2380.5 1433.5 2380.5 1494.9" stroke="#000000" stroke-width="4.58333" stroke-miterlimit="8" fill="none" fill-rule="evenodd"/><path d="M2298 1505 2299.09 1422 2302.91 1422 2304 1505Z" fill="#FFFFFF" fill-rule="evenodd"/><path d="M2296 1448 2275 1442.57 2275 1433.43 2296 1428Z" fill="#FFFFFF" fill-rule="evenodd"/><path d="M0 2.99992C-4.45588e-16 1.34311 1.56697 -3.8193e-16 3.49993 -7.63859e-16 5.43289-1.52772e-15 6.99987 1.34311 6.99987 2.99992 6.99987 4.65673 5.43289 5.99984 3.49993 5.99984 1.56697 5.99984-2.22794e-15 4.65673 0 2.99992Z" fill="#FFFFFF" fill-rule="evenodd" transform="matrix(-1 0 0 1 2305 1413)"/></g></svg>